<svg width="97" height="97" viewBox="0 0 97 97" fill="none" xmlns="http://www.w3.org/2000/svg">
<path d="M0.248718 48.4999H48.5V0.248657H0.248718V48.4999ZM4.72564 11.0331C3.79046 9.2622 4.06903 7.02373 5.56133 5.54138C6.80492 4.29779 8.56585 3.90979 10.1477 4.34753C10.2074 4.36743 10.2671 4.37738 10.3268 4.38732C10.4263 4.41717 10.5158 4.46691 10.6153 4.50671C10.7645 4.5664 10.9038 4.61614 11.0431 4.69573C11.0431 4.69573 15.0027 6.8745 18.4051 6.8745C18.4051 6.8745 22.4344 6.8745 24.3744 3.19348C26.3144 6.8745 30.3436 6.8745 30.3436 6.8745C33.7461 6.8745 37.7056 4.69573 37.7056 4.69573C37.8449 4.62609 37.9942 4.5664 38.1334 4.50671C38.2329 4.46691 38.3225 4.41717 38.4219 4.38732C38.4816 4.36743 38.5413 4.35748 38.601 4.34753C40.1829 3.90979 41.9438 4.29779 43.1874 5.54138C44.6797 7.03368 44.9583 9.27215 44.0231 11.043C44.0231 11.043 41.8443 15.0026 41.8443 18.4051C41.8443 18.4051 41.8443 22.4343 45.5154 24.3743C41.8443 26.3143 41.8443 30.3435 41.8443 30.3435C41.8443 33.746 44.0231 37.7056 44.0231 37.7056C44.9583 39.4765 44.6697 41.7149 43.1874 43.2072C41.9438 44.4508 40.1829 44.8388 38.601 44.4011C38.5413 44.3812 38.4816 44.3712 38.4219 44.3613C38.3225 44.3314 38.2329 44.2817 38.1334 44.2419C37.9842 44.1822 37.8449 44.1325 37.7056 44.0529C37.7056 44.0529 33.7461 41.8741 30.3436 41.8741C30.3436 41.8741 26.3144 41.8741 24.3744 45.5551C22.4344 41.8741 18.4051 41.8741 18.4051 41.8741C15.0027 41.8741 11.0431 44.0529 11.0431 44.0529C10.9038 44.1225 10.7546 44.1822 10.6153 44.2419C10.5158 44.2817 10.4263 44.3314 10.3268 44.3613C10.2671 44.3812 10.2074 44.3911 10.1477 44.4011C8.56585 44.8388 6.80492 44.4508 5.56133 43.2072C4.06903 41.7149 3.79046 39.4765 4.72564 37.7056C4.72564 37.7056 6.90441 33.746 6.90441 30.3435C6.90441 30.3435 6.90441 26.3143 3.23333 24.3743C6.90441 22.4343 6.90441 18.4051 6.90441 18.4051C6.90441 15.0026 4.72564 11.0331 4.72564 11.0331Z" fill="white" stroke="#575756" stroke-width="0.4993" stroke-miterlimit="10"/>
<path d="M48.5 48.4999H96.7513V0.248657H48.5V48.4999ZM52.967 11.0331C52.0318 9.2622 52.3203 7.02373 53.8027 5.53143C55.0463 4.28784 56.8072 3.89984 58.389 4.33758C58.4487 4.35748 58.5084 4.36743 58.5681 4.37738C58.6676 4.40722 58.7571 4.45696 58.8566 4.49676C59.0058 4.55645 59.1451 4.6062 59.2844 4.68579C59.2844 4.68579 63.244 6.86455 66.6465 6.86455C66.6465 6.86455 70.6757 6.86455 72.6157 3.18353C74.5557 6.86455 78.5849 6.86455 78.5849 6.86455C81.9874 6.86455 85.947 4.68579 85.947 4.68579C86.0863 4.61614 86.2355 4.55645 86.3748 4.49676C86.4743 4.45696 86.5638 4.40722 86.6633 4.37738C86.723 4.35748 86.7827 4.34753 86.8424 4.33758C88.4242 3.89984 90.1851 4.28784 91.4287 5.53143C92.921 7.02373 93.1996 9.2622 92.2644 11.0331C92.2644 11.0331 90.0856 14.9927 90.0856 18.3951C90.0856 18.3951 90.0856 22.4243 93.7567 24.3643C90.0856 26.3043 90.0856 30.3336 90.0856 30.3336C90.0856 33.736 92.2644 37.6956 92.2644 37.6956C93.1996 39.4665 92.9111 41.705 91.4287 43.1973C90.1851 44.4409 88.4242 44.8289 86.8424 44.3911C86.7827 44.3712 86.723 44.3613 86.6633 44.3513C86.5638 44.3215 86.4743 44.2717 86.3748 44.2319C86.2255 44.1722 86.0863 44.1225 85.947 44.0429C85.947 44.0429 81.9874 41.8641 78.5849 41.8641C78.5849 41.8641 74.5557 41.8641 72.6157 45.5452C70.6757 41.8641 66.6465 41.8641 66.6465 41.8641C63.244 41.8641 59.2844 44.0429 59.2844 44.0429C59.1451 44.1126 58.9959 44.1722 58.8566 44.2319C58.7571 44.2717 58.6676 44.3215 58.5681 44.3513C58.5084 44.3712 58.4487 44.3812 58.389 44.3911C56.8072 44.8289 55.0463 44.4409 53.8027 43.1973C52.3104 41.705 52.0318 39.4665 52.967 37.6956C52.967 37.6956 55.1457 33.736 55.1457 30.3336C55.1457 30.3336 55.1457 26.3043 51.4747 24.3643C55.1457 22.4243 55.1457 18.3951 55.1457 18.3951C55.1457 15.0026 52.967 11.0331 52.967 11.0331Z" fill="white" stroke="#575756" stroke-width="0.4993" stroke-miterlimit="10"/>
<path d="M0.248718 96.7513H48.5V48.5H0.248718V96.7513ZM4.71569 59.2944C3.78051 57.5235 4.06903 55.285 5.55138 53.7927C6.79497 52.5491 8.5559 52.1611 10.1377 52.5989C10.1974 52.6188 10.2571 52.6287 10.3168 52.6387C10.4163 52.6685 10.5058 52.7183 10.6053 52.758C10.7546 52.8177 10.8938 52.8675 11.0331 52.9471C11.0331 52.9471 14.9927 55.1258 18.3952 55.1258C18.3952 55.1258 22.4244 55.1258 24.3644 51.4448C26.3044 55.1258 30.3336 55.1258 30.3336 55.1258C33.7361 55.1258 37.6957 52.9471 37.6957 52.9471C37.835 52.8774 37.9842 52.8177 38.1235 52.758C38.223 52.7183 38.3125 52.6685 38.412 52.6387C38.4717 52.6188 38.5314 52.6088 38.5911 52.5989C40.1729 52.1611 41.9338 52.5491 43.1774 53.7927C44.6697 55.285 44.9483 57.5235 44.0131 59.2944C44.0131 59.2944 41.8344 63.2539 41.8344 66.6564C41.8344 66.6564 41.8344 70.6856 45.5054 72.6256C41.8344 74.5656 41.8344 78.5949 41.8344 78.5949C41.8344 81.9973 44.0131 85.9569 44.0131 85.9569C44.9483 87.7278 44.6598 89.9663 43.1774 91.4586C41.9338 92.7022 40.1729 93.0902 38.5911 92.6524C38.5314 92.6325 38.4717 92.6226 38.412 92.6126C38.3125 92.5828 38.223 92.533 38.1235 92.4932C37.9743 92.4335 37.835 92.3838 37.6957 92.3042C37.6957 92.3042 33.7361 90.1254 30.3336 90.1254C30.3336 90.1254 26.3044 90.1254 24.3644 93.8065C22.4244 90.1254 18.3952 90.1254 18.3952 90.1254C14.9927 90.1254 11.0331 92.3042 11.0331 92.3042C10.8938 92.3738 10.7446 92.4335 10.6053 92.4932C10.5058 92.533 10.4163 92.5828 10.3168 92.6126C10.2571 92.6325 10.1974 92.6425 10.1377 92.6524C8.5559 93.0902 6.79497 92.7022 5.55138 91.4586C4.05908 89.9663 3.78051 87.7278 4.71569 85.9569C4.71569 85.9569 6.89446 81.9973 6.89446 78.5949C6.89446 78.5949 6.89446 74.5656 3.22338 72.6256C6.89446 70.6856 6.89446 66.6564 6.89446 66.6564C6.90441 63.2539 4.71569 59.2944 4.71569 59.2944Z" fill="white" stroke="#575756" stroke-width="0.4993" stroke-miterlimit="10"/>
<path d="M48.5 96.7513H96.7513V48.5H48.5V96.7513ZM52.967 59.2944C52.0318 57.5235 52.3203 55.285 53.8027 53.7927C55.0463 52.5491 56.8072 52.1611 58.389 52.5989C58.4487 52.6188 58.5084 52.6287 58.5681 52.6387C58.6676 52.6685 58.7571 52.7183 58.8566 52.758C59.0058 52.8177 59.1451 52.8675 59.2844 52.9471C59.2844 52.9471 63.244 55.1258 66.6465 55.1258C66.6465 55.1258 70.6757 55.1258 72.6157 51.4448C74.5557 55.1258 78.5849 55.1258 78.5849 55.1258C81.9874 55.1258 85.947 52.9471 85.947 52.9471C86.0863 52.8774 86.2355 52.8177 86.3748 52.758C86.4743 52.7183 86.5638 52.6685 86.6633 52.6387C86.723 52.6188 86.7827 52.6088 86.8424 52.5989C88.4242 52.1611 90.1851 52.5491 91.4287 53.7927C92.921 55.285 93.1996 57.5235 92.2644 59.2944C92.2644 59.2944 90.0856 63.2539 90.0856 66.6564C90.0856 66.6564 90.0856 70.6856 93.7567 72.6256C90.0856 74.5656 90.0856 78.5949 90.0856 78.5949C90.0856 81.9973 92.2644 85.9569 92.2644 85.9569C93.1996 87.7278 92.9111 89.9663 91.4287 91.4586C90.1851 92.7022 88.4242 93.0902 86.8424 92.6524C86.7827 92.6325 86.723 92.6226 86.6633 92.6126C86.5638 92.5828 86.4743 92.533 86.3748 92.4932C86.2255 92.4335 86.0863 92.3838 85.947 92.3042C85.947 92.3042 81.9874 90.1254 78.5849 90.1254C78.5849 90.1254 74.5557 90.1254 72.6157 93.8065C70.6757 90.1254 66.6465 90.1254 66.6465 90.1254C63.244 90.1254 59.2844 92.3042 59.2844 92.3042C59.1451 92.3738 58.9959 92.4335 58.8566 92.4932C58.7571 92.533 58.6676 92.5828 58.5681 92.6126C58.5084 92.6325 58.4487 92.6425 58.389 92.6524C56.8072 93.0902 55.0463 92.7022 53.8027 91.4586C52.3104 89.9663 52.0318 87.7278 52.967 85.9569C52.967 85.9569 55.1457 81.9973 55.1457 78.5949C55.1457 78.5949 55.1457 74.5656 51.4747 72.6256C55.1457 70.6856 55.1457 66.6564 55.1457 66.6564C55.1457 63.2539 52.967 59.2944 52.967 59.2944Z" fill="white" stroke="#575756" stroke-width="0.4993" stroke-miterlimit="10"/>
</svg>
