<svg width="97" height="97" viewBox="0 0 97 97" fill="none" xmlns="http://www.w3.org/2000/svg">
<path d="M24.3744 0.248657H0.248718V24.3644V24.3743V48.49H24.3744H48.5V24.3743V24.3644V0.248657H24.3744Z" fill="white" stroke="#575756" stroke-width="0.4993" stroke-miterlimit="10" stroke-linecap="round" stroke-linejoin="round"/>
<path d="M16.873 24.0559L0.248718 0.248657L24.3644 17.1117L22.4145 22.1259L16.873 24.0559Z" fill="white" stroke="#575756" stroke-width="0.4993" stroke-miterlimit="10" stroke-linecap="round" stroke-linejoin="round"/>
<path d="M31.8657 24.0559L48.5 0.248657L24.3843 17.1117L26.3343 22.1259L31.8657 24.0559Z" fill="white" stroke="#575756" stroke-width="0.4993" stroke-miterlimit="10" stroke-linecap="round" stroke-linejoin="round"/>
<path d="M24.3744 14.0177L33.9251 0.248657H24.3744H14.8236L24.3744 14.0177Z" fill="white" stroke="#575756" stroke-width="0.4993" stroke-miterlimit="10" stroke-linecap="round" stroke-linejoin="round"/>
<path d="M28.4732 19.9571L24.3744 14.0276V14.0177V14.0276V14.0177V14.0276L20.2655 19.9571L24.3644 17.1118H24.3843L28.4732 19.9571Z" fill="white" stroke="#575756" stroke-width="0.4993" stroke-miterlimit="10" stroke-linecap="round" stroke-linejoin="round"/>
<path d="M31.8657 24.6827L48.5 48.49L24.3843 31.6269L26.3343 26.6128L31.8657 24.6827Z" fill="white" stroke="#575756" stroke-width="0.4993" stroke-miterlimit="10" stroke-linecap="round" stroke-linejoin="round"/>
<path d="M48.5 14.8235L34.7509 24.3643H34.721L34.7409 24.3743H34.721H34.7509L48.5 33.9151V24.3743V14.8235Z" fill="white" stroke="#575756" stroke-width="0.4993" stroke-miterlimit="10" stroke-linecap="round" stroke-linejoin="round"/>
<path d="M28.8015 28.4732L34.7111 24.3743H34.731H34.721L34.731 24.3644H34.7111L28.8015 20.2655L31.6369 24.3644V24.3743L28.8015 28.4732Z" fill="white" stroke="#575756" stroke-width="0.4993" stroke-miterlimit="10" stroke-linecap="round" stroke-linejoin="round"/>
<path d="M16.873 24.6827L0.248718 48.49L24.3644 31.6269L22.4145 26.6128L16.873 24.6827Z" fill="white" stroke="#575756" stroke-width="0.4993" stroke-miterlimit="10" stroke-linecap="round" stroke-linejoin="round"/>
<path d="M24.3744 34.7209L14.8236 48.49H24.3744H33.9251L24.3744 34.7209Z" fill="white" stroke="#575756" stroke-width="0.4993" stroke-miterlimit="10" stroke-linecap="round" stroke-linejoin="round"/>
<path d="M14.0177 24.3743H14.0078L14.0177 24.3643H13.9978L0.248718 14.8235V24.3643V33.9151L13.9978 24.3743H14.0177Z" fill="white" stroke="#575756" stroke-width="0.4993" stroke-miterlimit="10" stroke-linecap="round" stroke-linejoin="round"/>
<path d="M20.2655 28.7816L24.3744 34.7111V34.721V34.7111V34.721V34.7111L28.4732 28.7816L24.3843 31.627H24.3644L20.2655 28.7816Z" fill="white" stroke="#575756" stroke-width="0.4993" stroke-miterlimit="10" stroke-linecap="round" stroke-linejoin="round"/>
<path d="M17.1118 24.3743V24.3644L19.9472 20.2655L14.0376 24.3644H14.0177L14.0277 24.3743H14.0177H14.0376L19.9472 28.4732L17.1118 24.3743Z" fill="white" stroke="#575756" stroke-width="0.4993" stroke-miterlimit="10" stroke-linecap="round" stroke-linejoin="round"/>
<path d="M31.5673 24.3743V24.3644H31.5573L28.6722 20.0765L24.3744 17.1814L20.0765 20.0765L17.1914 24.3644H17.1814V24.3743H17.1914L20.0765 28.6622L24.3744 31.5573L28.6722 28.6622L31.5573 24.3743H31.5673Z" fill="white" stroke="#575756" stroke-width="0.4993" stroke-miterlimit="10" stroke-linecap="round" stroke-linejoin="round"/>
<path d="M24.3744 48.5H0.248718V72.6057V72.6256V96.7413H24.3744H48.5V72.6256V72.6057V48.5H24.3744Z" fill="white" stroke="#575756" stroke-width="0.4993" stroke-miterlimit="10" stroke-linecap="round" stroke-linejoin="round"/>
<path d="M16.873 72.2973L0.248718 48.5L24.3644 65.3631L22.4145 70.3673L16.873 72.2973Z" fill="white" stroke="#575756" stroke-width="0.4993" stroke-miterlimit="10" stroke-linecap="round" stroke-linejoin="round"/>
<path d="M31.8657 72.2973L48.5 48.5L24.3843 65.3631L26.3343 70.3673L31.8657 72.2973Z" fill="white" stroke="#575756" stroke-width="0.4993" stroke-miterlimit="10" stroke-linecap="round" stroke-linejoin="round"/>
<path d="M24.3744 62.2591L33.9251 48.5H24.3744H14.8236L24.3744 62.2591V62.269V62.2591Z" fill="white"/>
<path d="M24.3744 62.2591L33.9251 48.5H24.3744H14.8236L24.3744 62.2591ZM24.3744 62.2591V62.269V62.2591Z" stroke="#575756" stroke-width="0.4993" stroke-miterlimit="10" stroke-linecap="round" stroke-linejoin="round"/>
<path d="M28.4732 68.1985L24.3744 62.279V62.269V62.279V62.269V62.279L20.2655 68.1985L24.3644 65.3631H24.3843L28.4732 68.1985Z" fill="white" stroke="#575756" stroke-width="0.4993" stroke-miterlimit="10" stroke-linecap="round" stroke-linejoin="round"/>
<path d="M31.8657 72.9341L48.5 96.7414L24.3843 79.8683L26.3343 74.8641L31.8657 72.9341Z" fill="white" stroke="#575756" stroke-width="0.4993" stroke-miterlimit="10" stroke-linecap="round" stroke-linejoin="round"/>
<path d="M48.5 63.0649L34.7509 72.6058H34.721L34.7409 72.6157L34.721 72.6257H34.7509L48.5 82.1665V72.6257V63.0649Z" fill="white" stroke="#575756" stroke-width="0.4993" stroke-miterlimit="10" stroke-linecap="round" stroke-linejoin="round"/>
<path d="M28.8015 76.7146L34.7111 72.6257H34.731L34.721 72.6157L34.731 72.6058H34.7111L28.8015 68.5168L31.6369 72.6157L28.8015 76.7146Z" fill="white" stroke="#575756" stroke-width="0.4993" stroke-miterlimit="10" stroke-linecap="round" stroke-linejoin="round"/>
<path d="M16.873 72.9341L0.248718 96.7414L24.3644 79.8683L22.4145 74.8641L16.873 72.9341Z" fill="white" stroke="#575756" stroke-width="0.4993" stroke-miterlimit="10" stroke-linecap="round" stroke-linejoin="round"/>
<path d="M24.3744 82.9724L14.8236 96.7414H24.3744H33.9251L24.3744 82.9724V82.9624V82.9724V82.9624V82.9724Z" fill="white"/>
<path d="M24.3744 82.9724L14.8236 96.7414H24.3744H33.9251L24.3744 82.9724ZM24.3744 82.9724V82.9624V82.9724ZM24.3744 82.9724V82.9624V82.9724Z" stroke="#575756" stroke-width="0.4993" stroke-miterlimit="10" stroke-linecap="round" stroke-linejoin="round"/>
<path d="M14.0177 72.6257L14.0078 72.6157L14.0177 72.6058H13.9978L0.248718 63.0649V72.6058V82.1665L13.9978 72.6257H14.0177Z" fill="white" stroke="#575756" stroke-width="0.4993" stroke-miterlimit="10" stroke-linecap="round" stroke-linejoin="round"/>
<path d="M20.2655 77.033L24.3744 82.9524V82.9624V82.9524L28.4732 77.033L24.3843 79.8683H24.3644L20.2655 77.033Z" fill="white" stroke="#575756" stroke-width="0.4993" stroke-miterlimit="10" stroke-linecap="round" stroke-linejoin="round"/>
<path d="M17.1118 72.6157L19.9472 68.5168L14.0376 72.6058H14.0177L14.0277 72.6157L14.0177 72.6257H14.0376L19.9472 76.7146L17.1118 72.6157Z" fill="white" stroke="#575756" stroke-width="0.4993" stroke-miterlimit="10" stroke-linecap="round" stroke-linejoin="round"/>
<path d="M31.5673 72.6257V72.6157V72.6058H31.5573L28.6722 68.3179L24.3744 65.4327L20.0765 68.3179L17.1914 72.6058H17.1814V72.6157V72.6257H17.1914L20.0765 76.9136L24.3744 79.7987V79.8086V79.7987L28.6722 76.9136L31.5573 72.6257H31.5673Z" fill="white" stroke="#575756" stroke-width="0.4993" stroke-miterlimit="10" stroke-linecap="round" stroke-linejoin="round"/>
<path d="M72.6256 0.248657H48.5V24.3644V24.3743V48.49H72.6256H96.7513V24.3743V24.3644V0.248657H72.6256Z" fill="white" stroke="#575756" stroke-width="0.4993" stroke-miterlimit="10" stroke-linecap="round" stroke-linejoin="round"/>
<path d="M65.1243 24.046L48.5 0.248657L72.6157 17.1117L70.6657 22.1259L65.1243 24.046Z" fill="white" stroke="#575756" stroke-width="0.4993" stroke-miterlimit="10" stroke-linecap="round" stroke-linejoin="round"/>
<path d="M80.117 24.046L96.7513 0.248657L72.6356 17.1117L74.5855 22.1259L80.117 24.046Z" fill="white" stroke="#575756" stroke-width="0.4993" stroke-miterlimit="10" stroke-linecap="round" stroke-linejoin="round"/>
<path d="M72.6256 14.0177L82.1764 0.248657H72.6256H63.0749L72.6256 14.0177Z" fill="white" stroke="#575756" stroke-width="0.4993" stroke-miterlimit="10" stroke-linecap="round" stroke-linejoin="round"/>
<path d="M76.7245 19.9571L72.6256 14.0276V14.0177V14.0276V14.0177V14.0276L68.5168 19.9571L72.6157 17.1118H72.6356L76.7245 19.9571Z" fill="white" stroke="#575756" stroke-width="0.4993" stroke-miterlimit="10" stroke-linecap="round" stroke-linejoin="round"/>
<path d="M80.117 24.6827L96.7513 48.49L72.6356 31.6269L74.5855 26.6128L80.117 24.6827Z" fill="white" stroke="#575756" stroke-width="0.4993" stroke-miterlimit="10" stroke-linecap="round" stroke-linejoin="round"/>
<path d="M96.7513 14.8235L83.0022 24.3643H82.9723H82.9922L82.9723 24.3743H83.0022L96.7513 33.9151V24.3743V14.8235Z" fill="white" stroke="#575756" stroke-width="0.4993" stroke-miterlimit="10" stroke-linecap="round" stroke-linejoin="round"/>
<path d="M77.0528 28.4632L82.9624 24.3743H82.9823L82.9723 24.3644H82.9823H82.9624L77.0528 20.2655L79.8882 24.3644V24.3743L77.0528 28.4632Z" fill="white" stroke="#575756" stroke-width="0.4993" stroke-miterlimit="10" stroke-linecap="round" stroke-linejoin="round"/>
<path d="M65.1243 24.6827L48.5 48.49L72.6157 31.6269L70.6657 26.6128L65.1243 24.6827Z" fill="white" stroke="#575756" stroke-width="0.4993" stroke-miterlimit="10" stroke-linecap="round" stroke-linejoin="round"/>
<path d="M72.6256 34.721L63.0749 48.49H72.6256H82.1764L72.6256 34.721V34.7111V34.721V34.7111V34.721Z" fill="white"/>
<path d="M72.6256 34.721L63.0749 48.49H72.6256H82.1764L72.6256 34.721ZM72.6256 34.721V34.7111V34.721ZM72.6256 34.721V34.7111V34.721Z" stroke="#575756" stroke-width="0.4993" stroke-miterlimit="10" stroke-linecap="round" stroke-linejoin="round"/>
<path d="M62.269 24.3743L62.2591 24.3643H62.269H62.2491L48.5 14.8235V24.3643V33.9151L62.2491 24.3743H62.269Z" fill="white" stroke="#575756" stroke-width="0.4993" stroke-miterlimit="10" stroke-linecap="round" stroke-linejoin="round"/>
<path d="M68.5168 28.7816L72.6256 34.7111L76.7245 28.7816L72.6356 31.627H72.6157L68.5168 28.7816Z" fill="white" stroke="#575756" stroke-width="0.4993" stroke-miterlimit="10" stroke-linecap="round" stroke-linejoin="round"/>
<path d="M65.3531 24.3743L65.3631 24.3644L68.1985 20.2655L62.2889 24.3644H62.269H62.279L62.269 24.3743H62.2889L68.1985 28.4632L65.3531 24.3743Z" fill="white" stroke="#575756" stroke-width="0.4993" stroke-miterlimit="10" stroke-linecap="round" stroke-linejoin="round"/>
<path d="M79.8186 24.3743V24.3644H79.8086L76.9235 20.0765L72.6256 17.1814L68.3278 20.0765L65.4427 24.3644H65.4327V24.3743H65.4427L68.3278 28.6622L72.6256 31.5573L76.9235 28.6622L79.8086 24.3743H79.8186Z" fill="white" stroke="#575756" stroke-width="0.4993" stroke-miterlimit="10" stroke-linecap="round" stroke-linejoin="round"/>
<path d="M72.6256 48.49H48.5V72.6057V72.6256V96.7313H72.6256H96.7513V72.6256V72.6057V48.49H72.6256Z" fill="white" stroke="#575756" stroke-width="0.4993" stroke-miterlimit="10" stroke-linecap="round" stroke-linejoin="round"/>
<path d="M65.1243 72.2973L48.5 48.49L72.6157 65.363L70.6657 70.3672L65.1243 72.2973Z" fill="white" stroke="#575756" stroke-width="0.4993" stroke-miterlimit="10" stroke-linecap="round" stroke-linejoin="round"/>
<path d="M80.127 72.2973L96.7513 48.49L72.6356 65.363L74.5855 70.3672L80.127 72.2973Z" fill="white" stroke="#575756" stroke-width="0.4993" stroke-miterlimit="10" stroke-linecap="round" stroke-linejoin="round"/>
<path d="M72.6256 62.259L82.1764 48.49H72.6256H63.0749L72.6256 62.259V62.269V62.259V62.269V62.259Z" fill="white"/>
<path d="M72.6256 62.259L82.1764 48.49H72.6256H63.0749L72.6256 62.259ZM72.6256 62.259V62.269V62.259ZM72.6256 62.259V62.269V62.259Z" stroke="#575756" stroke-width="0.4993" stroke-miterlimit="10" stroke-linecap="round" stroke-linejoin="round"/>
<path d="M76.7345 68.1984L72.6256 62.2789V62.2689V62.2789L68.5168 68.1984L72.6157 65.363H72.6356L76.7345 68.1984Z" fill="white" stroke="#575756" stroke-width="0.4993" stroke-miterlimit="10" stroke-linecap="round" stroke-linejoin="round"/>
<path d="M80.127 72.934L96.7513 96.7313L72.6356 79.8682L74.5855 74.864L80.127 72.934Z" fill="white" stroke="#575756" stroke-width="0.4993" stroke-miterlimit="10" stroke-linecap="round" stroke-linejoin="round"/>
<path d="M96.7513 63.0648L83.0022 72.6056H82.9823L82.9922 72.6156L82.9823 72.6255H83.0022L96.7513 82.1664V72.6255V63.0648Z" fill="white" stroke="#575756" stroke-width="0.4993" stroke-miterlimit="10" stroke-linecap="round" stroke-linejoin="round"/>
<path d="M77.0528 76.7145L82.9624 72.6255H82.9823L82.9723 72.6156L82.9823 72.6056H82.9624L77.0528 68.5167L79.8882 72.6156L77.0528 76.7145Z" fill="white" stroke="#575756" stroke-width="0.4993" stroke-miterlimit="10" stroke-linecap="round" stroke-linejoin="round"/>
<path d="M65.1243 72.934L48.5 96.7313L72.6157 79.8682L70.6657 74.864L65.1243 72.934Z" fill="white" stroke="#575756" stroke-width="0.4993" stroke-miterlimit="10" stroke-linecap="round" stroke-linejoin="round"/>
<path d="M72.6256 82.9722L63.0749 96.7313H72.6256H82.1764L72.6256 82.9722V82.9623V82.9722Z" fill="white"/>
<path d="M72.6256 82.9722L63.0749 96.7313H72.6256H82.1764L72.6256 82.9722ZM72.6256 82.9722V82.9623V82.9722Z" stroke="#575756" stroke-width="0.4993" stroke-miterlimit="10" stroke-linecap="round" stroke-linejoin="round"/>
<path d="M62.269 72.6255L62.2591 72.6156L62.269 72.6056H62.2491L48.5 63.0648V72.6056V82.1664L62.2491 72.6255H62.269Z" fill="white" stroke="#575756" stroke-width="0.4993" stroke-miterlimit="10" stroke-linecap="round" stroke-linejoin="round"/>
<path d="M68.5168 77.0328L72.6256 82.9523V82.9623V82.9523L76.7345 77.0328L72.6356 79.8682H72.6157L68.5168 77.0328Z" fill="white" stroke="#575756" stroke-width="0.4993" stroke-miterlimit="10" stroke-linecap="round" stroke-linejoin="round"/>
<path d="M65.3631 72.6156L68.1985 68.5167L62.2889 72.6056H62.269L62.279 72.6156L62.269 72.6255H62.2889L68.1985 76.7145L65.3631 72.6156Z" fill="white" stroke="#575756" stroke-width="0.4993" stroke-miterlimit="10" stroke-linecap="round" stroke-linejoin="round"/>
<path d="M79.8186 72.6256V72.6156V72.6057H79.8086L76.9235 68.3178L72.6256 65.4327V65.4227V65.4327L68.3278 68.3178L65.4427 72.6057H65.4327V72.6156V72.6256H65.4427L68.3278 76.9135L72.6256 79.7986V79.8086V79.7986V79.8086V79.7986L76.9235 76.9135L79.8086 72.6256H79.8186Z" fill="white" stroke="#575756" stroke-width="0.4993" stroke-miterlimit="10" stroke-linecap="round" stroke-linejoin="round"/>
</svg>
