<svg width="97" height="98" viewBox="0 0 97 98" fill="none" xmlns="http://www.w3.org/2000/svg">
<path d="M96.7513 0.278564H48.5V48.5298H96.7513V0.278564Z" fill="white" stroke="#575756" stroke-width="0.4993" stroke-miterlimit="10"/>
<path d="M88.862 5.7702C85.8077 3.10394 82.0968 1.19379 78.0079 0.268555H87.0214C88.5237 1.17389 89.9464 2.20855 91.2596 3.37255L88.862 5.7702Z" fill="white" stroke="#575756" stroke-width="0.4993" stroke-miterlimit="10"/>
<path d="M56.3893 5.7702L53.9917 3.37255C55.3049 2.20855 56.7276 1.17389 58.2298 0.268555H67.2434C63.1644 1.19379 59.4535 3.10394 56.3893 5.7702Z" fill="white" stroke="#575756" stroke-width="0.4993" stroke-miterlimit="10"/>
<path d="M54.0016 40.6305L51.604 43.0282C50.44 41.715 49.4053 40.2923 48.5 38.79V29.7765C49.4153 33.8555 51.3354 37.5763 54.0016 40.6305Z" fill="white" stroke="#575756" stroke-width="0.4993" stroke-miterlimit="10"/>
<path d="M54.0016 8.16784C51.3354 11.2221 49.4153 14.9429 48.5 19.0318V10.0183C49.4053 8.5061 50.44 7.08343 51.604 5.78015L54.0016 8.16784Z" fill="white" stroke="#575756" stroke-width="0.4993" stroke-miterlimit="10"/>
<path d="M88.8619 43.0282L91.2596 45.4258C89.9464 46.5898 88.5237 47.6245 87.0214 48.5298H78.0178C82.0869 47.6046 85.8077 45.6945 88.8619 43.0282Z" fill="white" stroke="#575756" stroke-width="0.4993" stroke-miterlimit="10"/>
<path d="M56.3893 43.0282C59.4436 45.6945 63.1545 47.6046 67.2434 48.5298H58.2398C56.7276 47.6245 55.3049 46.5898 53.9917 45.4258L56.3893 43.0282Z" fill="white" stroke="#575756" stroke-width="0.4993" stroke-miterlimit="10"/>
<path d="M91.2596 8.16778L93.6473 5.77014C94.8113 7.08337 95.8459 8.50604 96.7513 10.0182V19.0218C95.836 14.9329 93.9159 11.222 91.2596 8.16778Z" fill="white" stroke="#575756" stroke-width="0.4993" stroke-miterlimit="10"/>
<path d="M91.2496 40.6305C93.9159 37.5763 95.8261 33.8654 96.7513 29.7765V38.7801C95.8459 40.2923 94.8113 41.715 93.6473 43.0282L91.2496 40.6305Z" fill="white" stroke="#575756" stroke-width="0.4993" stroke-miterlimit="10"/>
<path d="M52.2507 21.0514C53.6634 12.396 60.4285 5.57123 69.0441 4.06897C67.6314 12.7144 60.8663 19.5392 52.2507 21.0514Z" fill="white" stroke="#575756" stroke-width="0.4993" stroke-miterlimit="10"/>
<path d="M76.2072 4.05896C84.8228 5.57117 91.578 12.396 92.9907 21.0414C84.385 19.5392 77.6199 12.7143 76.2072 4.05896Z" fill="white" stroke="#575756" stroke-width="0.4993" stroke-miterlimit="10"/>
<path d="M52.2507 27.7468C60.8663 29.259 67.6214 36.0839 69.0342 44.7293C60.4285 43.227 53.6634 36.3923 52.2507 27.7468Z" fill="white" stroke="#575756" stroke-width="0.4993" stroke-miterlimit="10"/>
<path d="M92.9907 27.7468C91.578 36.3923 84.8228 43.227 76.2072 44.7293C77.6199 36.0839 84.385 29.259 92.9907 27.7468Z" fill="white" stroke="#575756" stroke-width="0.4993" stroke-miterlimit="10"/>
<path d="M63.4828 24.404C64.8557 25.2497 66.149 26.2147 67.3528 27.2792L64.9651 29.6669C63.443 28.3437 61.7616 27.1897 59.951 26.2744C58.3791 25.4785 56.7077 24.8517 54.9667 24.404C56.7077 23.9564 58.3791 23.3296 59.951 22.5337C61.7716 21.6085 63.4529 20.4644 64.9751 19.1312L67.3628 21.5189C66.149 22.5834 64.8557 23.5485 63.4828 24.404Z" fill="white" stroke="#575756" stroke-width="0.4993" stroke-miterlimit="10"/>
<path d="M81.7685 24.404C80.3956 23.5584 79.1023 22.5934 77.8985 21.5189L80.2862 19.1312C81.8083 20.4544 83.4896 21.6085 85.3103 22.5237C86.8822 23.3196 88.5535 23.9464 90.2946 24.3941C88.5436 24.8418 86.8822 25.4686 85.3103 26.2645C83.4896 27.1897 81.8183 28.3338 80.2961 29.657L77.9084 27.2693C79.1023 26.2147 80.3956 25.2497 81.7685 24.404Z" fill="white" stroke="#575756" stroke-width="0.4993" stroke-miterlimit="10"/>
<path d="M75.5008 19.1213C74.4363 17.9175 73.4713 16.6242 72.6157 15.2513C71.7701 16.6242 70.805 17.9175 69.7405 19.1213L67.3528 16.7336C68.676 15.2115 69.8301 13.5301 70.7553 11.7095C71.5512 10.1277 72.1779 8.4563 72.6256 6.70532C73.0733 8.4563 73.7001 10.1277 74.496 11.6996C75.4212 13.5202 76.5653 15.2015 77.8885 16.7237L75.5008 19.1213Z" fill="white" stroke="#575756" stroke-width="0.4993" stroke-miterlimit="10"/>
<path d="M69.7405 29.6769C70.805 30.8807 71.77 32.174 72.6157 33.5469C73.4613 32.174 74.4363 30.8807 75.5008 29.6769L77.8885 32.0646C76.5653 33.5867 75.4113 35.2681 74.496 37.0887C73.7001 38.6705 73.0634 40.3419 72.6256 42.0829C72.1779 40.332 71.5512 38.6606 70.7553 37.0887C69.8301 35.2681 68.6859 33.5867 67.3628 32.0646L69.7405 29.6769Z" fill="white" stroke="#575756" stroke-width="0.4993" stroke-miterlimit="10"/>
<path d="M48.53 0.248657H0.278717V48.4999H48.53V0.248657Z" fill="white" stroke="#575756" stroke-width="0.4993" stroke-miterlimit="10"/>
<path d="M40.6306 5.7503C37.5763 3.08404 33.8654 1.17389 29.7765 0.248657H38.7901C40.2923 1.15399 41.715 2.18866 43.0282 3.35266L40.6306 5.7503Z" fill="white" stroke="#575756" stroke-width="0.4993" stroke-miterlimit="10"/>
<path d="M8.1679 5.7503L5.77026 3.35266C7.08349 2.18866 8.50615 1.15399 10.0084 0.248657H19.0219C14.943 1.16394 11.2222 3.08404 8.1679 5.7503Z" fill="white" stroke="#575756" stroke-width="0.4993" stroke-miterlimit="10"/>
<path d="M5.77026 40.6006L3.38256 42.9983C2.21856 41.685 1.1839 40.2624 0.278564 38.7601V29.7466C1.19385 33.8355 3.11395 37.5464 5.77026 40.6006Z" fill="white" stroke="#575756" stroke-width="0.4993" stroke-miterlimit="10"/>
<path d="M5.78021 8.13794C3.104 11.1922 1.19385 14.913 0.278564 19.0019V9.9884C1.1839 8.47619 2.21856 7.05353 3.38257 5.75024L5.78021 8.13794Z" fill="white" stroke="#575756" stroke-width="0.4993" stroke-miterlimit="10"/>
<path d="M40.6306 42.9983L43.0282 45.3959C41.715 46.5599 40.2923 47.5946 38.7901 48.4999H29.7865C33.8654 47.5846 37.5763 45.6645 40.6306 42.9983Z" fill="white" stroke="#575756" stroke-width="0.4993" stroke-miterlimit="10"/>
<path d="M8.1679 42.9983C11.2222 45.6645 14.933 47.5747 19.0219 48.4999H10.0184C8.50615 47.5946 7.08349 46.5599 5.77026 45.3959L8.1679 42.9983Z" fill="white" stroke="#575756" stroke-width="0.4993" stroke-miterlimit="10"/>
<path d="M43.0282 8.138L45.4159 5.74036C46.5799 7.05359 47.6146 8.47625 48.5199 9.98846V18.9921C47.6146 14.9131 45.6945 11.1923 43.0282 8.138Z" fill="white" stroke="#575756" stroke-width="0.4993" stroke-miterlimit="10"/>
<path d="M43.0282 40.6006C45.6945 37.5464 47.6046 33.8355 48.5298 29.7466V38.7502C47.6245 40.2624 46.5898 41.685 45.4258 42.9983L43.0282 40.6006Z" fill="white" stroke="#575756" stroke-width="0.4993" stroke-miterlimit="10"/>
<path d="M4.02923 21.0215C5.44195 12.3761 12.1971 5.55127 20.8127 4.03906C19.4 12.6845 12.6448 19.5093 4.02923 21.0215Z" fill="white" stroke="#575756" stroke-width="0.4993" stroke-miterlimit="10"/>
<path d="M27.9857 4.03906C36.6013 5.55127 43.3565 12.3761 44.7692 21.0215C36.1536 19.5093 29.3985 12.6845 27.9857 4.03906Z" fill="white" stroke="#575756" stroke-width="0.4993" stroke-miterlimit="10"/>
<path d="M4.02923 27.7269C12.6448 29.2391 19.4 36.064 20.8127 44.7094C12.2071 43.1972 5.44195 36.3724 4.02923 27.7269Z" fill="white" stroke="#575756" stroke-width="0.4993" stroke-miterlimit="10"/>
<path d="M44.7692 27.7269C43.3565 36.3724 36.6013 43.2071 27.9857 44.7094C29.3985 36.064 36.1536 29.2292 44.7692 27.7269Z" fill="white" stroke="#575756" stroke-width="0.4993" stroke-miterlimit="10"/>
<path d="M15.2514 24.3743C16.6243 25.2199 17.9176 26.1849 19.1214 27.2494L16.7337 29.6371C15.2116 28.314 13.5303 27.1599 11.7196 26.2446C10.1477 25.4487 8.47631 24.822 6.73528 24.3743C8.47631 23.9266 10.1477 23.2998 11.7196 22.5039C13.5402 21.5787 15.2215 20.4346 16.7437 19.1014L19.1314 21.4891C17.9276 22.5636 16.6343 23.5286 15.2514 24.3743Z" fill="white" stroke="#575756" stroke-width="0.4993" stroke-miterlimit="10"/>
<path d="M33.5471 24.3743C32.1742 23.5286 30.8808 22.5636 29.677 21.4891L32.0647 19.1014C33.5869 20.4246 35.2682 21.5787 37.0888 22.494C38.6607 23.2899 40.3321 23.9166 42.0731 24.3643C40.3222 24.812 38.6607 25.4388 37.0888 26.2347C35.2682 27.1599 33.5968 28.304 32.0747 29.6272L29.687 27.2395C30.8808 26.1849 32.1742 25.2199 33.5471 24.3743Z" fill="white" stroke="#575756" stroke-width="0.4993" stroke-miterlimit="10"/>
<path d="M27.2794 19.1014C26.2149 17.8976 25.2498 16.6043 24.3943 15.2314C23.5486 16.6043 22.5836 17.8976 21.5191 19.1014L19.1314 16.7137C20.4546 15.1916 21.6086 13.5102 22.5338 11.6896C23.3297 10.1078 23.9565 8.4364 24.4042 6.68542C24.8519 8.4364 25.4787 10.1078 26.2746 11.6797C27.1998 13.5003 28.3439 15.1816 29.6671 16.7038L27.2794 19.1014Z" fill="white" stroke="#575756" stroke-width="0.4993" stroke-miterlimit="10"/>
<path d="M21.5191 29.6471C22.5836 30.8509 23.5486 32.1442 24.3943 33.5171C25.2399 32.1442 26.2149 30.8509 27.2794 29.6471L29.6671 32.0348C28.3439 33.5569 27.1898 35.2383 26.2746 37.0589C25.4787 38.6407 24.842 40.3121 24.4042 42.0531C23.9565 40.3022 23.3297 38.6308 22.5338 37.0589C21.6086 35.2383 20.4645 33.5569 19.1413 32.0348L21.5191 29.6471Z" fill="white" stroke="#575756" stroke-width="0.4993" stroke-miterlimit="10"/>
<path d="M48.5 48.5198H0.248718V96.7711H48.5V48.5198Z" fill="white" stroke="#575756" stroke-width="0.4993" stroke-miterlimit="10"/>
<path d="M48.5 48.5298H0.248718V96.7811H48.5V48.5298Z" fill="white" stroke="#575756" stroke-width="0.4993" stroke-miterlimit="10"/>
<path d="M40.6107 54.0214C37.5564 51.3552 33.8455 49.445 29.7566 48.5198H38.7702C40.2724 49.4251 41.6951 50.4598 43.0083 51.6238L40.6107 54.0214Z" fill="white" stroke="#575756" stroke-width="0.4993" stroke-miterlimit="10"/>
<path d="M8.13805 54.0214L5.74041 51.6238C7.05364 50.4598 8.47631 49.4251 9.97856 48.5198H18.9921C14.9131 49.445 11.1923 51.3552 8.13805 54.0214Z" fill="white" stroke="#575756" stroke-width="0.4993" stroke-miterlimit="10"/>
<path d="M5.75036 88.8817L3.35272 91.2794C2.18872 89.9661 1.15405 88.5435 0.248718 87.0312V78.0177C1.164 82.1066 3.0841 85.8274 5.75036 88.8817Z" fill="white" stroke="#575756" stroke-width="0.4993" stroke-miterlimit="10"/>
<path d="M5.75036 56.4191C3.0841 59.4733 1.17395 63.1941 0.248718 67.2831V58.2695C1.15405 56.7573 2.18872 55.3347 3.35272 54.0314L5.75036 56.4191Z" fill="white" stroke="#575756" stroke-width="0.4993" stroke-miterlimit="10"/>
<path d="M40.6107 91.2694L42.9984 93.6671C41.6951 94.8311 40.2625 95.8657 38.7602 96.771H29.7566C33.8356 95.8558 37.5564 93.9456 40.6107 91.2694Z" fill="white" stroke="#575756" stroke-width="0.4993" stroke-miterlimit="10"/>
<path d="M8.13805 91.2694C11.1923 93.9357 14.9032 95.8558 18.9921 96.771H9.98851C8.47631 95.8657 7.05364 94.8311 5.74041 93.6671L8.13805 91.2694Z" fill="white" stroke="#575756" stroke-width="0.4993" stroke-miterlimit="10"/>
<path d="M42.9984 56.419L45.386 54.0214C46.55 55.3346 47.5847 56.7573 48.4901 58.2595V67.2631C47.5847 63.1841 45.6646 59.4733 42.9984 56.419Z" fill="white" stroke="#575756" stroke-width="0.4993" stroke-miterlimit="10"/>
<path d="M42.9984 88.8818C45.6646 85.8275 47.5748 82.1166 48.5 78.0277V87.0313C47.5947 88.5435 46.56 89.9662 45.396 91.2695L42.9984 88.8818Z" fill="white" stroke="#575756" stroke-width="0.4993" stroke-miterlimit="10"/>
<path d="M3.99939 69.2926C5.4121 60.6472 12.1673 53.8224 20.7829 52.3102C19.3801 60.9656 12.615 67.7904 3.99939 69.2926Z" fill="white" stroke="#575756" stroke-width="0.4993" stroke-miterlimit="10"/>
<path d="M27.9559 52.3202C36.5715 53.8324 43.3267 60.6572 44.7394 69.3027C36.1337 67.7904 29.3686 60.9656 27.9559 52.3202Z" fill="white" stroke="#575756" stroke-width="0.4993" stroke-miterlimit="10"/>
<path d="M3.99939 75.998C12.615 77.5103 19.3702 84.3351 20.7829 92.9805C12.1772 91.4783 5.42205 84.6435 3.99939 75.998Z" fill="white" stroke="#575756" stroke-width="0.4993" stroke-miterlimit="10"/>
<path d="M44.7493 75.998C43.3366 84.6435 36.5814 91.4783 27.9658 92.9805C29.3686 84.3351 36.1337 77.5103 44.7493 75.998Z" fill="white" stroke="#575756" stroke-width="0.4993" stroke-miterlimit="10"/>
<path d="M15.2315 72.6553C16.6044 73.501 17.8977 74.466 19.1015 75.5305L16.7138 77.9182C15.1917 76.595 13.5104 75.441 11.6997 74.5257C10.1278 73.7298 8.45641 73.103 6.71539 72.6553C8.45641 72.2076 10.1278 71.5809 11.6997 70.785C13.5203 69.8597 15.2016 68.7156 16.7238 67.3925L19.1115 69.7802C17.8977 70.8347 16.6044 71.7997 15.2315 72.6553Z" fill="white" stroke="#575756" stroke-width="0.4993" stroke-miterlimit="10"/>
<path d="M33.5172 72.6454C32.1443 71.7997 30.851 70.8347 29.6472 69.7603L32.0349 67.3726C33.557 68.6957 35.2384 69.8498 37.049 70.775C38.6209 71.5709 40.2923 72.1977 42.0333 72.6454C40.2824 73.0931 38.6209 73.7198 37.049 74.5157C35.2284 75.441 33.5471 76.5851 32.0349 77.9082L29.6472 75.5206C30.851 74.466 32.1443 73.501 33.5172 72.6454Z" fill="white" stroke="#575756" stroke-width="0.4993" stroke-miterlimit="10"/>
<path d="M27.2595 67.3725C26.195 66.1687 25.23 64.8754 24.3843 63.5025C23.5387 64.8754 22.5736 66.1687 21.4992 67.3725L19.1115 64.9848C20.4347 63.4627 21.5788 61.7814 22.504 59.9607C23.2999 58.3789 23.9366 56.7075 24.3744 54.9565C24.8221 56.7075 25.4488 58.3789 26.2447 59.9508C27.1699 61.7714 28.3141 63.4527 29.6472 64.9749L27.2595 67.3725Z" fill="white" stroke="#575756" stroke-width="0.4993" stroke-miterlimit="10"/>
<path d="M21.4892 77.9281C22.5537 79.1319 23.5188 80.4252 24.3744 81.7982C25.22 80.4252 26.185 79.1319 27.2495 77.9281L29.6372 80.3158C28.3141 81.8379 27.16 83.5193 26.2348 85.3399C25.4389 86.9217 24.8121 88.5931 24.3644 90.3342C23.9167 88.5832 23.29 86.9118 22.4941 85.3399C21.5688 83.5193 20.4247 81.8379 19.1015 80.3158L21.4892 77.9281Z" fill="white" stroke="#575756" stroke-width="0.4993" stroke-miterlimit="10"/>
<path d="M96.7513 48.5298H48.5V96.7811H96.7513V48.5298Z" fill="white" stroke="#575756" stroke-width="0.4993" stroke-miterlimit="10"/>
<path d="M88.862 54.0214C85.8077 51.3552 82.0968 49.445 78.0079 48.5198H87.0214C88.5237 49.4251 89.9464 50.4598 91.2596 51.6238L88.862 54.0214Z" fill="white" stroke="#575756" stroke-width="0.4993" stroke-miterlimit="10"/>
<path d="M56.3893 54.0214L53.9917 51.6238C55.3049 50.4598 56.7276 49.4251 58.2298 48.5198H67.2434C63.1644 49.445 59.4436 51.3552 56.3893 54.0214Z" fill="white" stroke="#575756" stroke-width="0.4993" stroke-miterlimit="10"/>
<path d="M54.0016 88.8818L51.604 91.2794C50.44 89.9662 49.4053 88.5535 48.5 87.0412V78.0277C49.4153 82.1067 51.3354 85.8275 54.0016 88.8818Z" fill="white" stroke="#575756" stroke-width="0.4993" stroke-miterlimit="10"/>
<path d="M54.0016 56.4191C51.3354 59.4733 49.4252 63.1941 48.5 67.2831V58.2695C49.4053 56.7573 50.44 55.3347 51.604 54.0314L54.0016 56.4191Z" fill="white" stroke="#575756" stroke-width="0.4993" stroke-miterlimit="10"/>
<path d="M88.8619 91.2694L91.2496 93.6671C89.9464 94.8311 88.5137 95.8657 87.0115 96.771H78.0079C82.0869 95.8558 85.8077 93.9456 88.8619 91.2694Z" fill="white" stroke="#575756" stroke-width="0.4993" stroke-miterlimit="10"/>
<path d="M56.3893 91.2694C59.4436 93.9357 63.1545 95.8558 67.2434 96.771H58.2398C56.7276 95.8657 55.3049 94.8311 53.9917 93.6671L56.3893 91.2694Z" fill="white" stroke="#575756" stroke-width="0.4993" stroke-miterlimit="10"/>
<path d="M91.2496 56.419L93.6373 54.0214C94.8013 55.3346 95.836 56.7573 96.7413 58.2595V67.2631C95.826 63.1841 93.9159 59.4733 91.2496 56.419Z" fill="white" stroke="#575756" stroke-width="0.4993" stroke-miterlimit="10"/>
<path d="M91.2496 88.8818C93.9159 85.8275 95.8261 82.1166 96.7513 78.0277V87.0313C95.8459 88.5435 94.8113 89.9662 93.6473 91.2695L91.2496 88.8818Z" fill="white" stroke="#575756" stroke-width="0.4993" stroke-miterlimit="10"/>
<path d="M52.2507 69.2926C53.6634 60.6472 60.4186 53.8224 69.0342 52.3102C67.6314 60.9656 60.8663 67.7904 52.2507 69.2926Z" fill="white" stroke="#575756" stroke-width="0.4993" stroke-miterlimit="10"/>
<path d="M76.2072 52.3202C84.8228 53.8324 91.578 60.6572 92.9907 69.3027C84.3751 67.7904 77.6199 60.9656 76.2072 52.3202Z" fill="white" stroke="#575756" stroke-width="0.4993" stroke-miterlimit="10"/>
<path d="M52.2507 75.998C60.8663 77.5103 67.6214 84.3351 69.0342 92.9805C60.4285 91.4783 53.6634 84.6435 52.2507 75.998Z" fill="white" stroke="#575756" stroke-width="0.4993" stroke-miterlimit="10"/>
<path d="M92.9907 75.998C91.578 84.6435 84.8228 91.4783 76.2072 92.9805C77.6199 84.3351 84.385 77.5103 92.9907 75.998Z" fill="white" stroke="#575756" stroke-width="0.4993" stroke-miterlimit="10"/>
<path d="M63.4828 72.6553C64.8557 73.501 66.149 74.466 67.3528 75.5305L64.9651 77.9182C63.443 76.595 61.7616 75.441 59.951 74.5257C58.3791 73.7298 56.7077 73.103 54.9667 72.6553C56.7077 72.2076 58.3791 71.5809 59.951 70.785C61.7716 69.8597 63.4529 68.7156 64.9751 67.3925L67.3628 69.7802C66.149 70.8347 64.8557 71.7997 63.4828 72.6553Z" fill="white" stroke="#575756" stroke-width="0.4993" stroke-miterlimit="10"/>
<path d="M81.7685 72.6454C80.3956 71.7997 79.1023 70.8347 77.8985 69.7603L80.2862 67.3726C81.8083 68.6957 83.4896 69.8498 85.3003 70.775C86.8722 71.5709 88.5436 72.1977 90.2846 72.6454C88.5336 73.0931 86.8722 73.7198 85.3003 74.5157C83.4797 75.441 81.7984 76.5851 80.2862 77.9082L77.8985 75.5206C79.1023 74.466 80.3956 73.501 81.7685 72.6454Z" fill="white" stroke="#575756" stroke-width="0.4993" stroke-miterlimit="10"/>
<path d="M75.5008 67.3725C74.4363 66.1687 73.4713 64.8754 72.6256 63.5025C71.78 64.8754 70.815 66.1687 69.7405 67.3725L67.3528 64.9848C68.676 63.4627 69.8201 61.7814 70.7453 59.9607C71.5412 58.3789 72.1779 56.7075 72.6157 54.9565C73.0634 56.7075 73.6902 58.3789 74.4861 59.9508C75.4113 61.7714 76.5554 63.4527 77.8885 64.9749L75.5008 67.3725Z" fill="white" stroke="#575756" stroke-width="0.4993" stroke-miterlimit="10"/>
<path d="M69.7405 77.9281C70.805 79.1319 71.7701 80.4252 72.6256 81.7982C73.4713 80.4252 74.4363 79.1319 75.5008 77.9281L77.8885 80.3158C76.5653 81.8379 75.4113 83.5193 74.4861 85.3399C73.6902 86.9217 73.0634 88.5931 72.6157 90.3342C72.168 88.5832 71.5412 86.9118 70.7453 85.3399C69.8201 83.5193 68.676 81.8379 67.3528 80.3158L69.7405 77.9281Z" fill="white" stroke="#575756" stroke-width="0.4993" stroke-miterlimit="10"/>
</svg>
