<svg width="97" height="98" viewBox="0 0 97 98" fill="none" xmlns="http://www.w3.org/2000/svg">
<path d="M48.5001 0.25H0.248779V48.75H48.5001V0.25Z" stroke="#575756" stroke-width="0.4993" stroke-miterlimit="10"/>
<path d="M43.9136 8.89999L45.3562 4.89999C45.6944 3.96999 44.7991 3.06999 43.8639 3.39999L39.8844 4.84999C36.5416 6.05999 32.9999 3.75999 32.6716 0.23999H48.49V16.13C44.998 15.82 42.7098 12.26 43.9136 8.89999Z" stroke="#575756" stroke-width="0.4993" stroke-miterlimit="10"/>
<path d="M39.8943 44.14L43.8738 45.59C44.7991 45.93 45.6944 45.03 45.3661 44.09L43.9236 40.09C42.7198 36.73 45.008 33.17 48.5099 32.84V48.74H32.7014C33.0098 45.23 36.5516 42.93 39.8943 44.14Z" stroke="#575756" stroke-width="0.4993" stroke-miterlimit="10"/>
<path d="M4.8352 40.1L3.39264 44.1C3.05438 45.03 3.94976 45.93 4.88494 45.6L8.86443 44.15C12.2072 42.94 15.7489 45.24 16.0772 48.76H0.258789V32.87C3.75079 33.18 6.03899 36.74 4.8352 40.1Z" stroke="#575756" stroke-width="0.4993" stroke-miterlimit="10"/>
<path d="M8.85436 4.86001L4.87487 3.41001C3.94964 3.07001 3.05426 3.97001 3.38256 4.91001L4.82513 8.91001C6.02892 12.27 3.74072 15.83 0.23877 16.16V0.26001H16.0473C15.7389 3.77001 12.1971 6.07001 8.85436 4.86001Z" stroke="#575756" stroke-width="0.4993" stroke-miterlimit="10"/>
<path d="M22.9518 48.72C22.9518 36.14 12.7742 25.91 0.258728 25.91C0.258728 25.91 0.258728 25.91 0.248779 25.91V23.19C0.248779 23.19 0.248779 23.19 0.258728 23.19C6.78509 23.19 12.7245 25.7 17.2213 29.77L29.6074 17.32C25.5683 12.79 23.0811 6.83 23.0811 0.28C23.0811 0.27 23.0811 0.26 23.0811 0.25H25.7871C25.7871 0.26 25.7871 0.27 25.7871 0.28C25.7871 12.86 35.9647 23.09 48.4901 23.09C48.4901 23.09 48.4901 23.09 48.5001 23.09V25.81C48.5001 25.81 48.5001 25.81 48.4901 25.81C41.9638 25.81 36.0244 23.3 31.5275 19.23L19.1414 31.69C23.1806 36.21 25.6678 42.17 25.6678 48.72C25.6678 48.73 25.6678 48.74 25.6678 48.75H22.9617C22.9518 48.74 22.9518 48.73 22.9518 48.72Z" stroke="#575756" stroke-width="0.4993" stroke-miterlimit="10"/>
<path d="M48.5001 48.75H0.248779V97.25H48.5001V48.75Z" stroke="#575756" stroke-width="0.4993" stroke-miterlimit="10"/>
<path d="M43.9136 57.4L45.3562 53.4C45.6944 52.47 44.7991 51.57 43.8639 51.9L39.8844 53.35C36.5416 54.56 32.9999 52.26 32.6716 48.74H48.49V64.63C44.998 64.32 42.7098 60.75 43.9136 57.4Z" stroke="#575756" stroke-width="0.4993" stroke-miterlimit="10"/>
<path d="M39.8943 92.64L43.8738 94.09C44.7991 94.43 45.6944 93.53 45.3661 92.59L43.9236 88.59C42.7198 85.23 45.008 81.67 48.5099 81.34V97.24H32.7014C33.0098 93.72 36.5516 91.42 39.8943 92.64Z" stroke="#575756" stroke-width="0.4993" stroke-miterlimit="10"/>
<path d="M4.8352 88.59L3.39264 92.59C3.05438 93.52 3.94976 94.42 4.88494 94.09L8.86443 92.64C12.2072 91.43 15.7489 93.73 16.0772 97.25H0.258789V81.36C3.75079 81.67 6.03899 85.24 4.8352 88.59Z" stroke="#575756" stroke-width="0.4993" stroke-miterlimit="10"/>
<path d="M8.85436 53.35L4.87487 51.9C3.94964 51.56 3.05426 52.46 3.38256 53.4L4.82513 57.4C6.02892 60.76 3.74072 64.32 0.23877 64.65V48.75H16.0473C15.7389 52.27 12.1971 54.57 8.85436 53.35Z" stroke="#575756" stroke-width="0.4993" stroke-miterlimit="10"/>
<path d="M22.9518 97.21C22.9518 84.63 12.7742 74.4 0.258728 74.4C0.258728 74.4 0.258728 74.4 0.248779 74.4V71.68C0.248779 71.68 0.248779 71.68 0.258728 71.68C6.78509 71.68 12.7245 74.19 17.2213 78.26L29.6074 65.81C25.5683 61.29 23.0811 55.33 23.0811 48.78C23.0811 48.77 23.0811 48.76 23.0811 48.75H25.7871C25.7871 48.76 25.7871 48.77 25.7871 48.78C25.7871 61.36 35.9647 71.59 48.4901 71.59C48.4901 71.59 48.4901 71.59 48.5001 71.59V74.31C48.5001 74.31 48.5001 74.31 48.4901 74.31C41.9638 74.31 36.0244 71.8 31.5275 67.73L19.1414 80.18C23.1806 84.7 25.6678 90.66 25.6678 97.21C25.6678 97.22 25.6678 97.23 25.6678 97.24H22.9617C22.9518 97.23 22.9518 97.22 22.9518 97.21Z" stroke="#575756" stroke-width="0.4993" stroke-miterlimit="10"/>
<path d="M96.7513 48.75H48.5001V97.25H96.7513V48.75Z" stroke="#575756" stroke-width="0.4993" stroke-miterlimit="10"/>
<path d="M92.1649 57.4L93.6075 53.4C93.9457 52.47 93.0503 51.57 92.1152 51.9L88.1357 53.35C84.7929 54.56 81.2512 52.26 80.9229 48.74H96.7413V64.63C93.2493 64.32 90.9611 60.75 92.1649 57.4Z" stroke="#575756" stroke-width="0.4993" stroke-miterlimit="10"/>
<path d="M88.1456 92.64L92.1251 94.09C93.0503 94.43 93.9457 93.53 93.6174 92.59L92.1748 88.59C90.9711 85.23 93.2593 81.67 96.7612 81.34V97.24H80.9527C81.2611 93.72 84.8028 91.42 88.1456 92.64Z" stroke="#575756" stroke-width="0.4993" stroke-miterlimit="10"/>
<path d="M53.0865 88.59L51.6439 92.59C51.3057 93.52 52.201 94.42 53.1362 94.09L57.1157 92.64C60.4585 91.43 64.0002 93.73 64.3285 97.25H48.5101V81.36C52.0021 81.67 54.2903 85.24 53.0865 88.59Z" stroke="#575756" stroke-width="0.4993" stroke-miterlimit="10"/>
<path d="M57.1056 53.35L53.1262 51.9C52.2009 51.56 51.3055 52.46 51.6338 53.4L53.0764 57.4C54.2802 60.76 51.992 64.32 48.4901 64.65V48.75H64.2986C63.9902 52.27 60.4484 54.57 57.1056 53.35Z" stroke="#575756" stroke-width="0.4993" stroke-miterlimit="10"/>
<path d="M71.203 97.21C71.203 84.63 61.0255 74.4 48.51 74.4C48.51 74.4 48.51 74.4 48.5001 74.4V71.68C48.5001 71.68 48.5001 71.68 48.51 71.68C55.0364 71.68 60.9758 74.19 65.4726 78.26L77.8587 65.81C73.8196 61.29 71.3324 55.33 71.3324 48.78C71.3324 48.77 71.3324 48.76 71.3324 48.75H74.0384C74.0384 48.76 74.0384 48.77 74.0384 48.78C74.0384 61.36 84.216 71.59 96.7414 71.59C96.7414 71.59 96.7414 71.59 96.7513 71.59V74.31C96.7513 74.31 96.7513 74.31 96.7414 74.31C90.215 74.31 84.2757 71.8 79.7788 67.73L67.3927 80.18C71.4319 84.7 73.919 90.66 73.919 97.21C73.919 97.22 73.919 97.23 73.919 97.24H71.213C71.203 97.23 71.203 97.22 71.203 97.21Z" stroke="#575756" stroke-width="0.4993" stroke-miterlimit="10"/>
<path d="M96.7513 0.25H48.5001V48.75H96.7513V0.25Z" stroke="#575756" stroke-width="0.4993" stroke-miterlimit="10"/>
<path d="M92.1649 8.89999L93.6075 4.89999C93.9457 3.96999 93.0503 3.06999 92.1152 3.39999L88.1357 4.84999C84.7929 6.05999 81.2512 3.75999 80.9229 0.23999H96.7413V16.13C93.2493 15.82 90.9611 12.26 92.1649 8.89999Z" stroke="#575756" stroke-width="0.4993" stroke-miterlimit="10"/>
<path d="M88.1456 44.14L92.1251 45.59C93.0503 45.93 93.9457 45.03 93.6174 44.09L92.1748 40.09C90.9711 36.73 93.2593 33.17 96.7612 32.84V48.74H80.9527C81.2611 45.23 84.8028 42.93 88.1456 44.14Z" stroke="#575756" stroke-width="0.4993" stroke-miterlimit="10"/>
<path d="M53.0865 40.1L51.6439 44.1C51.3057 45.03 52.201 45.93 53.1362 45.6L57.1157 44.15C60.4585 42.94 64.0002 45.24 64.3285 48.76H48.5101V32.87C52.0021 33.18 54.2903 36.74 53.0865 40.1Z" stroke="#575756" stroke-width="0.4993" stroke-miterlimit="10"/>
<path d="M57.1056 4.86001L53.1262 3.41001C52.2009 3.07001 51.3055 3.97001 51.6338 4.91001L53.0764 8.91001C54.2802 12.27 51.992 15.83 48.4901 16.16V0.26001H64.2986C63.9902 3.77001 60.4484 6.07001 57.1056 4.86001Z" stroke="#575756" stroke-width="0.4993" stroke-miterlimit="10"/>
<path d="M71.203 48.72C71.203 36.14 61.0255 25.91 48.51 25.91C48.51 25.91 48.51 25.91 48.5001 25.91V23.19C48.5001 23.19 48.5001 23.19 48.51 23.19C55.0364 23.19 60.9758 25.7 65.4726 29.77L77.8587 17.32C73.8196 12.79 71.3324 6.83 71.3324 0.28C71.3324 0.27 71.3324 0.26 71.3324 0.25H74.0384C74.0384 0.26 74.0384 0.27 74.0384 0.28C74.0384 12.86 84.216 23.09 96.7414 23.09C96.7414 23.09 96.7414 23.09 96.7513 23.09V25.81C96.7513 25.81 96.7513 25.81 96.7414 25.81C90.215 25.81 84.2757 23.3 79.7788 19.23L67.3927 31.69C71.4319 36.21 73.919 42.17 73.919 48.72C73.919 48.73 73.919 48.74 73.919 48.75H71.213C71.203 48.74 71.203 48.73 71.203 48.72Z" stroke="#575756" stroke-width="0.4993" stroke-miterlimit="10"/>
</svg>
