<svg width="97" height="97" viewBox="0 0 97 97" fill="none" xmlns="http://www.w3.org/2000/svg">
<path d="M96.7513 48.5H48.5V96.7513H96.7513V48.5Z" fill="white" stroke="#575756" stroke-width="0.4993" stroke-miterlimit="10"/>
<path d="M74.1975 88.5933C74.1975 89.5981 73.3519 90.8716 72.9042 91.4884C72.7649 91.6774 72.4864 91.6774 72.3471 91.4884C71.8994 90.8716 71.0537 89.5981 71.0537 88.5933C71.0537 87.2204 71.7601 86.3947 72.6256 86.3947C73.4912 86.3947 74.1975 87.2304 74.1975 88.5933Z" fill="white" stroke="#575756" stroke-width="0.4993" stroke-miterlimit="10"/>
<path d="M71.0537 56.6579C71.0537 55.6531 71.8994 54.3797 72.3471 53.7629C72.4864 53.5738 72.7649 53.5738 72.9042 53.7629C73.3519 54.3797 74.1975 55.6531 74.1975 56.6579C74.1975 58.0309 73.4912 58.8566 72.6256 58.8566C71.7601 58.8566 71.0537 58.0209 71.0537 56.6579Z" fill="white" stroke="#575756" stroke-width="0.4993" stroke-miterlimit="10"/>
<path d="M88.5933 71.0537C89.5981 71.0537 90.8716 71.8994 91.4884 72.347C91.6774 72.4863 91.6774 72.7649 91.4884 72.9042C90.8716 73.3519 89.5981 74.1975 88.5933 74.1975C87.2204 74.1975 86.3947 73.4911 86.3947 72.6256C86.3947 71.7601 87.2304 71.0537 88.5933 71.0537Z" fill="white" stroke="#575756" stroke-width="0.4993" stroke-miterlimit="10"/>
<path d="M56.6579 74.1975C55.6531 74.1975 54.3797 73.3519 53.7629 72.9042C53.5738 72.7649 53.5738 72.4863 53.7629 72.347C54.3797 71.8994 55.6531 71.0537 56.6579 71.0537C58.0309 71.0537 58.8566 71.7601 58.8566 72.6256C58.8467 73.4911 58.0209 74.1975 56.6579 74.1975Z" fill="white" stroke="#575756" stroke-width="0.4993" stroke-miterlimit="10"/>
<path d="M80.8234 67.9299C79.7091 69.0441 77.3413 69.5316 76.1575 69.7107C75.7893 69.7704 75.4809 69.452 75.5307 69.0839C75.7098 67.9 76.1972 65.5322 77.3115 64.418C78.8337 62.8958 80.5448 62.7566 81.5099 63.7216C82.4848 64.6965 82.3555 66.3978 80.8234 67.9299Z" fill="white" stroke="#575756" stroke-width="0.4993" stroke-miterlimit="10"/>
<path d="M64.4279 77.3215C65.5422 76.2073 67.9099 75.7198 69.0938 75.5407C69.4619 75.481 69.7704 75.7994 69.7206 76.1675C69.5415 77.3514 69.054 79.7191 67.9398 80.8334C66.4176 82.3556 64.7065 82.4948 63.7414 81.5298C62.7565 80.5548 62.8958 78.8437 64.4279 77.3215Z" fill="white" stroke="#575756" stroke-width="0.4993" stroke-miterlimit="10"/>
<path d="M63.3335 72.9838L62.2093 74.108C62.0104 74.3069 61.6721 74.3069 61.4731 74.108L60.3489 72.9838C60.15 72.7848 60.15 72.4465 60.3489 72.2476L61.4731 71.1234C61.6721 70.9244 62.0104 70.9244 62.2093 71.1234L63.3335 72.2476C63.5325 72.4465 63.5325 72.7748 63.3335 72.9838Z" fill="white" stroke="#575756" stroke-width="0.4993" stroke-miterlimit="10"/>
<path d="M84.9024 73.0037L83.7782 74.1279C83.5792 74.3268 83.2409 74.3268 83.042 74.1279L81.9178 73.0037C81.7188 72.8047 81.7188 72.4664 81.9178 72.2675L83.042 71.1432C83.2409 70.9443 83.5792 70.9443 83.7782 71.1432L84.9024 72.2675C85.1113 72.4664 85.1113 72.8047 84.9024 73.0037Z" fill="white" stroke="#575756" stroke-width="0.4993" stroke-miterlimit="10"/>
<path d="M72.2676 63.3335L71.1434 62.2093C70.9444 62.0104 70.9444 61.6721 71.1434 61.4731L72.2676 60.3489C72.4665 60.15 72.8048 60.15 73.0038 60.3489L74.128 61.4731C74.327 61.6721 74.327 62.0104 74.128 62.2093L73.0038 63.3335C72.8048 63.5325 72.4665 63.5325 72.2676 63.3335Z" fill="white" stroke="#575756" stroke-width="0.4993" stroke-miterlimit="10"/>
<path d="M72.2476 84.9024L71.1234 83.7782C70.9244 83.5792 70.9244 83.241 71.1234 83.042L72.2476 81.9178C72.4466 81.7188 72.7848 81.7188 72.9838 81.9178L74.108 83.042C74.307 83.241 74.307 83.5792 74.108 83.7782L72.9838 84.9024C72.7749 85.1113 72.4466 85.1113 72.2476 84.9024Z" fill="white" stroke="#575756" stroke-width="0.4993" stroke-miterlimit="10"/>
<path d="M77.3214 80.8234C76.2072 79.7091 75.7197 77.3413 75.5406 76.1575C75.4809 75.7893 75.7993 75.4809 76.1674 75.5307C77.3513 75.7098 79.7191 76.1972 80.8333 77.3115C82.3555 78.8337 82.4948 80.5448 81.5298 81.5099C80.5548 82.4848 78.8436 82.3555 77.3214 80.8234Z" fill="white" stroke="#575756" stroke-width="0.4993" stroke-miterlimit="10"/>
<path d="M67.9298 64.4279C69.0441 65.5422 69.5316 67.9099 69.7107 69.0938C69.7704 69.4619 69.452 69.7704 69.0839 69.7206C67.9 69.5415 65.5322 69.054 64.418 67.9398C62.8958 66.4176 62.7565 64.7065 63.7215 63.7414C64.6965 62.7565 66.3977 62.8958 67.9298 64.4279Z" fill="white" stroke="#575756" stroke-width="0.4993" stroke-miterlimit="10"/>
<path d="M77.5801 73.1032C77.9084 72.8645 77.9084 72.377 77.5801 72.1481C76.9633 71.7104 75.9286 71.0836 74.6751 70.7155C74.6154 70.6857 74.5557 70.6359 74.5358 70.5663C74.1577 69.3128 73.5409 68.2781 73.1032 67.6613C72.8644 67.333 72.3769 67.333 72.1481 67.6613C71.7104 68.2781 71.0836 69.3128 70.7155 70.5663C70.6856 70.6359 70.6359 70.6857 70.5663 70.7056C69.3127 71.0836 68.2781 71.7005 67.6612 72.1382C67.3329 72.377 67.3329 72.8645 67.6612 73.0933C68.2781 73.531 69.3127 74.1478 70.5663 74.5259C70.6359 74.5458 70.6856 74.6055 70.7055 74.6652C71.0836 75.9187 71.7004 76.9534 72.1382 77.5702C72.3769 77.8985 72.8644 77.8985 73.0932 77.5702C73.531 76.9534 74.1578 75.9187 74.5259 74.6652C74.5458 74.5955 74.6054 74.5458 74.6651 74.5259C75.9386 74.1677 76.9732 73.541 77.5801 73.1032Z" fill="white" stroke="#575756" stroke-width="0.4993" stroke-miterlimit="10"/>
<path d="M72.6256 74.1478C73.4663 74.1478 74.1478 73.4663 74.1478 72.6257C74.1478 71.785 73.4663 71.1035 72.6256 71.1035C71.785 71.1035 71.1035 71.785 71.1035 72.6257C71.1035 73.4663 71.785 74.1478 72.6256 74.1478Z" fill="white" stroke="#575756" stroke-width="0.4993" stroke-miterlimit="10"/>
<path d="M96.7513 0.248657H48.5V48.4999H96.7513V0.248657Z" fill="white" stroke="#575756" stroke-width="0.4993" stroke-miterlimit="10"/>
<path d="M74.1975 40.342C74.1975 41.3468 73.3519 42.6202 72.9042 43.2371C72.7649 43.4261 72.4864 43.4261 72.3471 43.2371C71.8994 42.6202 71.0537 41.3468 71.0537 40.342C71.0537 38.9691 71.7601 38.1433 72.6256 38.1433C73.4912 38.1433 74.1975 38.979 74.1975 40.342Z" fill="white" stroke="#575756" stroke-width="0.4993" stroke-miterlimit="10"/>
<path d="M71.0537 8.4066C71.0537 7.40178 71.8994 6.12834 72.3471 5.51152C72.4864 5.32249 72.7649 5.32249 72.9042 5.51152C73.3519 6.12834 74.1975 7.40178 74.1975 8.4066C74.1975 9.77952 73.4912 10.6053 72.6256 10.6053C71.7601 10.6053 71.0537 9.76957 71.0537 8.4066Z" fill="white" stroke="#575756" stroke-width="0.4993" stroke-miterlimit="10"/>
<path d="M88.5933 22.8024C89.5981 22.8024 90.8716 23.648 91.4884 24.0957C91.6774 24.235 91.6774 24.5135 91.4884 24.6528C90.8716 25.1005 89.5981 25.9462 88.5933 25.9462C87.2204 25.9462 86.3947 25.2398 86.3947 24.3743C86.4046 23.5087 87.2304 22.8024 88.5933 22.8024Z" fill="white" stroke="#575756" stroke-width="0.4993" stroke-miterlimit="10"/>
<path d="M56.6579 25.9462C55.6531 25.9462 54.3797 25.1005 53.7629 24.6528C53.5738 24.5135 53.5738 24.235 53.7629 24.0957C54.3797 23.648 55.6531 22.8024 56.6579 22.8024C58.0309 22.8024 58.8566 23.5087 58.8566 24.3743C58.8467 25.2398 58.0209 25.9462 56.6579 25.9462Z" fill="white" stroke="#575756" stroke-width="0.4993" stroke-miterlimit="10"/>
<path d="M80.8234 19.6785C79.7091 20.7928 77.3413 21.2803 76.1575 21.4594C75.7893 21.5191 75.4809 21.2007 75.5307 20.8326C75.7098 19.6487 76.1972 17.2809 77.3115 16.1666C78.8337 14.6445 80.5448 14.5052 81.5099 15.4702C82.4948 16.4452 82.3555 18.1564 80.8234 19.6785Z" fill="white" stroke="#575756" stroke-width="0.4993" stroke-miterlimit="10"/>
<path d="M64.4279 29.0702C65.5422 27.9559 67.9099 27.4684 69.0938 27.2893C69.4619 27.2297 69.7704 27.548 69.7206 27.9161C69.5415 29.1 69.054 31.4678 67.9398 32.5821C66.4176 34.1042 64.7065 34.2435 63.7414 33.2785C62.7565 32.3035 62.8958 30.5923 64.4279 29.0702Z" fill="white" stroke="#575756" stroke-width="0.4993" stroke-miterlimit="10"/>
<path d="M63.3335 24.7324L62.2093 25.8566C62.0104 26.0556 61.6721 26.0556 61.4731 25.8566L60.3489 24.7324C60.15 24.5334 60.15 24.1952 60.3489 23.9962L61.4731 22.872C61.6721 22.673 62.0104 22.673 62.2093 22.872L63.3335 23.9962C63.5325 24.1952 63.5325 24.5235 63.3335 24.7324Z" fill="white" stroke="#575756" stroke-width="0.4993" stroke-miterlimit="10"/>
<path d="M84.9024 24.7523L83.7782 25.8765C83.5792 26.0755 83.2409 26.0755 83.042 25.8765L81.9178 24.7523C81.7188 24.5533 81.7188 24.2151 81.9178 24.0161L83.042 22.8919C83.2409 22.6929 83.5792 22.6929 83.7782 22.8919L84.9024 24.0161C85.1113 24.2151 85.1113 24.5533 84.9024 24.7523Z" fill="white" stroke="#575756" stroke-width="0.4993" stroke-miterlimit="10"/>
<path d="M72.2676 15.0822L71.1434 13.958C70.9444 13.759 70.9444 13.4208 71.1434 13.2218L72.2676 12.0976C72.4665 11.8986 72.8048 11.8986 73.0038 12.0976L74.128 13.2218C74.327 13.4208 74.327 13.759 74.128 13.958L73.0038 15.0822C72.8048 15.2812 72.4665 15.2812 72.2676 15.0822Z" fill="white" stroke="#575756" stroke-width="0.4993" stroke-miterlimit="10"/>
<path d="M72.2476 36.6511L71.1234 35.5268C70.9244 35.3279 70.9244 34.9896 71.1234 34.7906L72.2476 33.6664C72.4466 33.4675 72.7848 33.4675 72.9838 33.6664L74.108 34.7906C74.307 34.9896 74.307 35.3279 74.108 35.5268L72.9838 36.6511C72.7749 36.86 72.4466 36.86 72.2476 36.6511Z" fill="white" stroke="#575756" stroke-width="0.4993" stroke-miterlimit="10"/>
<path d="M77.3214 32.5721C76.2072 31.4578 75.7197 29.09 75.5406 27.9061C75.4809 27.538 75.7993 27.2296 76.1674 27.2793C77.3513 27.4584 79.7191 27.9459 80.8333 29.0602C82.3555 30.5823 82.4948 32.2935 81.5298 33.2585C80.5548 34.2434 78.8436 34.1042 77.3214 32.5721Z" fill="white" stroke="#575756" stroke-width="0.4993" stroke-miterlimit="10"/>
<path d="M67.9298 16.1766C69.0441 17.2908 69.5316 19.6586 69.7107 20.8425C69.7704 21.2106 69.452 21.519 69.0839 21.4693C67.9 21.2902 65.5322 20.8027 64.418 19.6885C62.8958 18.1663 62.7565 16.4551 63.7215 15.4901C64.6965 14.5052 66.4077 14.6445 67.9298 16.1766Z" fill="white" stroke="#575756" stroke-width="0.4993" stroke-miterlimit="10"/>
<path d="M77.5801 24.8518C77.9084 24.613 77.9084 24.1256 77.5801 23.8967C76.9633 23.459 75.9286 22.8322 74.6751 22.4641C74.6054 22.4442 74.5557 22.3845 74.5358 22.3248C74.1578 21.0713 73.5409 20.0366 73.1032 19.4198C72.8644 19.0915 72.3769 19.0915 72.1481 19.4198C71.7104 20.0366 71.0836 21.0713 70.7155 22.3248C70.6956 22.3945 70.6359 22.4442 70.5762 22.4641C69.3227 22.8422 68.288 23.459 67.6712 23.8967C67.3429 24.1355 67.3429 24.623 67.6712 24.8518C68.288 25.2896 69.3227 25.9064 70.5762 26.2844C70.6459 26.3043 70.6956 26.364 70.7155 26.4237C71.0936 27.6772 71.7104 28.7119 72.1481 29.3287C72.3869 29.657 72.8744 29.657 73.1032 29.3287C73.5409 28.7119 74.1677 27.6772 74.5358 26.4237C74.5557 26.3541 74.6154 26.3043 74.6751 26.2844C75.9386 25.9163 76.9732 25.2896 77.5801 24.8518Z" fill="white" stroke="#575756" stroke-width="0.4993" stroke-miterlimit="10"/>
<path d="M72.6256 25.8965C73.4663 25.8965 74.1478 25.215 74.1478 24.3743C74.1478 23.5337 73.4663 22.8522 72.6256 22.8522C71.785 22.8522 71.1035 23.5337 71.1035 24.3743C71.1035 25.215 71.785 25.8965 72.6256 25.8965Z" fill="white" stroke="#575756" stroke-width="0.4993" stroke-miterlimit="10"/>
<path d="M48.51 0.248657H0.258728V48.4999H48.51V0.248657Z" fill="white" stroke="#575756" stroke-width="0.4993" stroke-miterlimit="10"/>
<path d="M25.9562 40.342C25.9562 41.3468 25.1106 42.6202 24.6629 43.2371C24.5236 43.4261 24.245 43.4261 24.1057 43.2371C23.658 42.6202 22.8124 41.3468 22.8124 40.342C22.8124 38.9691 23.5188 38.1433 24.3843 38.1433C25.2498 38.1533 25.9562 38.979 25.9562 40.342Z" fill="white" stroke="#575756" stroke-width="0.4993" stroke-miterlimit="10"/>
<path d="M22.8124 8.4066C22.8124 7.40178 23.658 6.12834 24.1057 5.51152C24.245 5.32249 24.5236 5.32249 24.6629 5.51152C25.1106 6.12834 25.9562 7.40178 25.9562 8.4066C25.9562 9.77952 25.2498 10.6053 24.3843 10.6053C23.5188 10.5953 22.8124 9.76957 22.8124 8.4066Z" fill="white" stroke="#575756" stroke-width="0.4993" stroke-miterlimit="10"/>
<path d="M40.352 22.8024C41.3568 22.8024 42.6303 23.648 43.2471 24.0957C43.4361 24.235 43.4361 24.5135 43.2471 24.6528C42.6303 25.1005 41.3568 25.9462 40.352 25.9462C38.9791 25.9462 38.1534 25.2398 38.1534 24.3743C38.1633 23.5087 38.989 22.8024 40.352 22.8024Z" fill="white" stroke="#575756" stroke-width="0.4993" stroke-miterlimit="10"/>
<path d="M8.41664 25.9462C7.41182 25.9462 6.13838 25.1005 5.52156 24.6528C5.33253 24.5135 5.33253 24.235 5.52156 24.0957C6.13838 23.648 7.41182 22.8024 8.41664 22.8024C9.78956 22.8024 10.6153 23.5087 10.6153 24.3743C10.6054 25.2398 9.77961 25.9462 8.41664 25.9462Z" fill="white" stroke="#575756" stroke-width="0.4993" stroke-miterlimit="10"/>
<path d="M32.5821 19.6785C31.4678 20.7928 29.1 21.2803 27.9161 21.4594C27.548 21.5191 27.2396 21.2007 27.2893 20.8326C27.4684 19.6487 27.9559 17.2809 29.0702 16.1666C30.5923 14.6445 32.3035 14.5052 33.2685 15.4702C34.2335 16.4353 34.1142 18.1564 32.5821 19.6785Z" fill="white" stroke="#575756" stroke-width="0.4993" stroke-miterlimit="10"/>
<path d="M16.1866 29.0702C17.3008 27.9559 19.6686 27.4684 20.8525 27.2893C21.2206 27.2297 21.529 27.548 21.4793 27.9161C21.3002 29.1 20.8127 31.4678 19.6985 32.5821C18.1763 34.1042 16.4651 34.2435 15.5001 33.2785C14.5351 32.3134 14.6545 30.5923 16.1866 29.0702Z" fill="white" stroke="#575756" stroke-width="0.4993" stroke-miterlimit="10"/>
<path d="M15.0922 24.7324L13.968 25.8566C13.769 26.0556 13.4308 26.0556 13.2318 25.8566L12.1076 24.7324C11.9086 24.5334 11.9086 24.1952 12.1076 23.9962L13.2318 22.872C13.4308 22.673 13.769 22.673 13.968 22.872L15.0922 23.9962C15.2912 24.1952 15.2912 24.5235 15.0922 24.7324Z" fill="white" stroke="#575756" stroke-width="0.4993" stroke-miterlimit="10"/>
<path d="M36.671 24.7523L35.5468 25.8765C35.3478 26.0755 35.0096 26.0755 34.8106 25.8765L33.6864 24.7523C33.4874 24.5533 33.4874 24.2151 33.6864 24.0161L34.8106 22.8919C35.0096 22.6929 35.3478 22.6929 35.5468 22.8919L36.671 24.0161C36.87 24.2151 36.87 24.5533 36.671 24.7523Z" fill="white" stroke="#575756" stroke-width="0.4993" stroke-miterlimit="10"/>
<path d="M24.0262 15.0822L22.902 13.958C22.7031 13.759 22.7031 13.4208 22.902 13.2218L24.0262 12.0976C24.2252 11.8986 24.5635 11.8986 24.7624 12.0976L25.8867 13.2218C26.0856 13.4208 26.0856 13.759 25.8867 13.958L24.7624 15.0822C24.5635 15.2812 24.2352 15.2812 24.0262 15.0822Z" fill="white" stroke="#575756" stroke-width="0.4993" stroke-miterlimit="10"/>
<path d="M24.0063 36.6511L22.882 35.5268C22.6831 35.3279 22.6831 34.9896 22.882 34.7906L24.0063 33.6664C24.2052 33.4675 24.5435 33.4675 24.7425 33.6664L25.8667 34.7906C26.0656 34.9896 26.0656 35.3279 25.8667 35.5268L24.7425 36.6511C24.5435 36.86 24.2052 36.86 24.0063 36.6511Z" fill="white" stroke="#575756" stroke-width="0.4993" stroke-miterlimit="10"/>
<path d="M29.0801 32.5721C27.9659 31.4578 27.4784 29.09 27.2993 27.9061C27.2396 27.538 27.558 27.2296 27.9261 27.2793C29.11 27.4584 31.4778 27.9459 32.592 29.0602C34.1142 30.5823 34.2534 32.2935 33.2884 33.2585C32.3234 34.2235 30.6023 34.1042 29.0801 32.5721Z" fill="white" stroke="#575756" stroke-width="0.4993" stroke-miterlimit="10"/>
<path d="M19.6885 16.1765C20.8028 17.2908 21.2903 19.6586 21.4693 20.8425C21.529 21.2106 21.2107 21.519 20.8426 21.4692C19.6587 21.2902 17.2909 20.8027 16.1766 19.6884C14.6545 18.1663 14.5152 16.4551 15.4802 15.4901C16.4452 14.525 18.1664 14.6444 19.6885 16.1765Z" fill="white" stroke="#575756" stroke-width="0.4993" stroke-miterlimit="10"/>
<path d="M29.3487 24.8518C29.677 24.613 29.677 24.1256 29.3487 23.8967C28.7319 23.459 27.6972 22.8322 26.4437 22.4641C26.3741 22.4442 26.3243 22.3845 26.3044 22.3248C25.9264 21.0713 25.3095 20.0366 24.8718 19.4198C24.633 19.0915 24.1455 19.0915 23.9167 19.4198C23.479 20.0366 22.8522 21.0713 22.4841 22.3248C22.4642 22.3945 22.4045 22.4442 22.3448 22.4641C21.0913 22.8422 20.0566 23.459 19.4398 23.8967C19.1115 24.1355 19.1115 24.623 19.4398 24.8518C20.0566 25.2896 21.0913 25.9064 22.3448 26.2844C22.4145 26.3043 22.4642 26.364 22.4841 26.4237C22.8622 27.6772 23.479 28.7119 23.9167 29.3287C24.1555 29.657 24.643 29.657 24.8718 29.3287C25.3095 28.7119 25.9363 27.6772 26.3044 26.4237C26.3243 26.3541 26.384 26.3043 26.4437 26.2844C27.6972 25.9163 28.7319 25.2896 29.3487 24.8518Z" fill="white" stroke="#575756" stroke-width="0.4993" stroke-miterlimit="10"/>
<path d="M24.3843 25.8965C25.225 25.8965 25.9065 25.215 25.9065 24.3743C25.9065 23.5337 25.225 22.8522 24.3843 22.8522C23.5436 22.8522 22.8622 23.5337 22.8622 24.3743C22.8622 25.215 23.5436 25.8965 24.3843 25.8965Z" fill="white" stroke="#575756" stroke-width="0.4993" stroke-miterlimit="10"/>
<path d="M48.5 48.5H0.248718V96.7513H48.5V48.5Z" fill="white" stroke="#575756" stroke-width="0.4993" stroke-miterlimit="10"/>
<path d="M25.9463 88.5933C25.9463 89.5981 25.1006 90.8716 24.6529 91.4884C24.5136 91.6774 24.2351 91.6774 24.0958 91.4884C23.6481 90.8716 22.8025 89.5981 22.8025 88.5933C22.8025 87.2204 23.5088 86.3947 24.3744 86.3947C25.2399 86.4046 25.9463 87.2304 25.9463 88.5933Z" fill="white" stroke="#575756" stroke-width="0.4993" stroke-miterlimit="10"/>
<path d="M22.8025 56.6579C22.8025 55.6531 23.6481 54.3797 24.0958 53.7629C24.2351 53.5738 24.5136 53.5738 24.6529 53.7629C25.1006 54.3797 25.9463 55.6531 25.9463 56.6579C25.9463 58.0309 25.2399 58.8566 24.3744 58.8566C23.5088 58.8467 22.8025 58.0209 22.8025 56.6579Z" fill="white" stroke="#575756" stroke-width="0.4993" stroke-miterlimit="10"/>
<path d="M40.342 71.0537C41.3469 71.0537 42.6203 71.8994 43.2371 72.347C43.4261 72.4863 43.4261 72.7649 43.2371 72.9042C42.6203 73.3519 41.3469 74.1975 40.342 74.1975C38.9691 74.1975 38.1434 73.4911 38.1434 72.6256C38.1434 71.7601 38.9791 71.0537 40.342 71.0537Z" fill="white" stroke="#575756" stroke-width="0.4993" stroke-miterlimit="10"/>
<path d="M8.40666 74.1975C7.40184 74.1975 6.1284 73.3519 5.51158 72.9042C5.32256 72.7649 5.32256 72.4863 5.51158 72.347C6.1284 71.8994 7.40184 71.0537 8.40666 71.0537C9.77958 71.0537 10.6053 71.7601 10.6053 72.6256C10.6053 73.4911 9.76963 74.1975 8.40666 74.1975Z" fill="white" stroke="#575756" stroke-width="0.4993" stroke-miterlimit="10"/>
<path d="M32.5721 67.9299C31.4579 69.0441 29.0901 69.5316 27.9062 69.7107C27.5381 69.7704 27.2297 69.452 27.2794 69.0839C27.4585 67.9 27.946 65.5322 29.0602 64.418C30.5824 62.8958 32.2935 62.7566 33.2586 63.7216C34.2435 64.6965 34.1042 66.4077 32.5721 67.9299Z" fill="white" stroke="#575756" stroke-width="0.4993" stroke-miterlimit="10"/>
<path d="M16.1766 77.3215C17.2909 76.2073 19.6587 75.7198 20.8426 75.5407C21.2107 75.481 21.5191 75.7994 21.4693 76.1675C21.2903 77.3514 20.8028 79.7191 19.6885 80.8334C18.1664 82.3556 16.4552 82.4948 15.4902 81.5298C14.5052 80.5548 14.6445 78.8437 16.1766 77.3215Z" fill="white" stroke="#575756" stroke-width="0.4993" stroke-miterlimit="10"/>
<path d="M15.0823 72.9838L13.9581 74.108C13.7591 74.3069 13.4208 74.3069 13.2219 74.108L12.0977 72.9838C11.8987 72.7848 11.8987 72.4465 12.0977 72.2476L13.2219 71.1234C13.4208 70.9244 13.7591 70.9244 13.9581 71.1234L15.0823 72.2476C15.2812 72.4465 15.2812 72.7748 15.0823 72.9838Z" fill="white" stroke="#575756" stroke-width="0.4993" stroke-miterlimit="10"/>
<path d="M36.6511 73.0037L35.5269 74.1279C35.3279 74.3268 34.9897 74.3268 34.7907 74.1279L33.6665 73.0037C33.4675 72.8047 33.4675 72.4664 33.6665 72.2675L34.7907 71.1432C34.9897 70.9443 35.3279 70.9443 35.5269 71.1432L36.6511 72.2675C36.86 72.4664 36.86 72.8047 36.6511 73.0037Z" fill="white" stroke="#575756" stroke-width="0.4993" stroke-miterlimit="10"/>
<path d="M24.0163 63.3335L22.8921 62.2093C22.6931 62.0104 22.6931 61.6721 22.8921 61.4731L24.0163 60.3489C24.2153 60.15 24.5535 60.15 24.7525 60.3489L25.8767 61.4731C26.0757 61.6721 26.0757 62.0104 25.8767 62.2093L24.7525 63.3335C24.5535 63.5325 24.2153 63.5325 24.0163 63.3335Z" fill="white" stroke="#575756" stroke-width="0.4993" stroke-miterlimit="10"/>
<path d="M23.9963 84.9024L22.8721 83.7782C22.6731 83.5792 22.6731 83.241 22.8721 83.042L23.9963 81.9178C24.1953 81.7188 24.5335 81.7188 24.7325 81.9178L25.8567 83.042C26.0557 83.241 26.0557 83.5792 25.8567 83.7782L24.7325 84.9024C24.5236 85.1113 24.1953 85.1113 23.9963 84.9024Z" fill="white" stroke="#575756" stroke-width="0.4993" stroke-miterlimit="10"/>
<path d="M29.0702 80.8234C27.9559 79.7091 27.4684 77.3413 27.2893 76.1575C27.2297 75.7893 27.548 75.4809 27.9161 75.5307C29.1 75.7098 31.4678 76.1972 32.5821 77.3115C34.1042 78.8337 34.2435 80.5448 33.2785 81.5099C32.3035 82.4948 30.5923 82.3555 29.0702 80.8234Z" fill="white" stroke="#575756" stroke-width="0.4993" stroke-miterlimit="10"/>
<path d="M19.6786 64.4279C20.7928 65.5422 21.2803 67.9099 21.4594 69.0938C21.5191 69.4619 21.2007 69.7704 20.8326 69.7206C19.6487 69.5415 17.2809 69.054 16.1667 67.9398C14.6445 66.4176 14.5052 64.7065 15.4703 63.7414C16.4452 62.7565 18.1564 62.8958 19.6786 64.4279Z" fill="white" stroke="#575756" stroke-width="0.4993" stroke-miterlimit="10"/>
<path d="M29.3288 73.1032C29.6571 72.8644 29.6571 72.3769 29.3288 72.1481C28.712 71.7103 27.6773 71.0836 26.4238 70.7155C26.3542 70.6956 26.3044 70.6359 26.2845 70.5762C25.9065 69.3227 25.2896 68.288 24.8519 67.6712C24.6131 67.3428 24.1256 67.3428 23.8968 67.6712C23.4591 68.288 22.8323 69.3227 22.4642 70.5762C22.4443 70.6458 22.3846 70.6956 22.3249 70.7155C21.0714 71.0935 20.0367 71.7103 19.4199 72.1481C19.0916 72.3868 19.0916 72.8743 19.4199 73.1032C20.0367 73.5409 21.0714 74.1577 22.3249 74.5358C22.3946 74.5557 22.4443 74.6154 22.4642 74.6751C22.8423 75.9286 23.4591 76.9633 23.8968 77.5801C24.1356 77.9084 24.6231 77.9084 24.8519 77.5801C25.2896 76.9633 25.9164 75.9286 26.2845 74.6751C26.3044 74.6054 26.3641 74.5557 26.4238 74.5358C27.6873 74.1677 28.722 73.5409 29.3288 73.1032Z" fill="white" stroke="#575756" stroke-width="0.4993" stroke-miterlimit="10"/>
<path d="M24.3744 74.1478C25.215 74.1478 25.8965 73.4663 25.8965 72.6257C25.8965 71.785 25.215 71.1035 24.3744 71.1035C23.5337 71.1035 22.8522 71.785 22.8522 72.6257C22.8522 73.4663 23.5337 74.1478 24.3744 74.1478Z" fill="white" stroke="#575756" stroke-width="0.4993" stroke-miterlimit="10"/>
</svg>
