<svg width="97" height="97" viewBox="0 0 97 97" fill="none" xmlns="http://www.w3.org/2000/svg">
<path d="M48.5 48.5H0.248718V96.7513H48.5V48.5Z" fill="white" stroke="#575756" stroke-width="0.4993" stroke-miterlimit="10"/>
<path d="M96.7513 0.248657H48.5V48.4999H96.7513V0.248657Z" fill="white" stroke="#575756" stroke-width="0.4993" stroke-miterlimit="10"/>
<path d="M77.4508 18.7632C76.5057 19.4099 75.1526 20.3351 73.9588 21.1609C73.6902 19.7283 73.3917 18.1166 73.1828 16.9924C72.8744 15.3608 72.3769 15.3608 72.0685 16.9924C71.8596 18.1166 71.5611 19.7283 71.2925 21.1509C70.0887 20.3252 68.7457 19.4 67.8005 18.7533C66.4276 17.8082 66.0794 18.1663 67.0146 19.5392C67.6612 20.4844 68.5865 21.8374 69.4122 23.0312C67.9796 23.2999 66.3679 23.5983 65.2437 23.8072C63.6121 24.1157 63.6121 24.6131 65.2437 24.9115C66.3679 25.1205 67.9796 25.4189 69.4122 25.6875C68.5865 26.8814 67.6612 28.2344 67.0146 29.1795C66.0794 30.5525 66.4276 30.9007 67.8005 29.9655C68.7457 29.3188 70.0987 28.3936 71.3025 27.5679C71.5711 29.0005 71.8696 30.6022 72.0785 31.7264C72.3869 33.358 72.8843 33.368 73.1927 31.7264C73.4017 30.6022 73.7001 28.9905 73.9687 27.5579C75.1725 28.3837 76.5156 29.3089 77.4607 29.9555C78.8337 30.9007 79.1819 30.5425 78.2467 29.1696C77.6 28.2245 76.6748 26.8714 75.849 25.6776C77.2817 25.409 78.8834 25.1105 80.0076 24.9016C81.6392 24.5932 81.6392 24.0958 80.0076 23.7873C78.8834 23.5784 77.2717 23.28 75.849 23.0113C76.6748 21.8075 77.6 20.4645 78.2467 19.5193C79.1719 18.1763 78.8237 17.8281 77.4508 18.7632Z" fill="white" stroke="#575756" stroke-width="0.4993" stroke-miterlimit="10"/>
<path d="M29.1995 67.0145C28.2544 67.6611 26.9014 68.5864 25.7075 69.4121C25.4389 67.9795 25.1404 66.3678 24.9315 65.2436C24.6231 63.612 24.1257 63.612 23.8173 65.2436C23.6083 66.3678 23.3099 67.9795 23.0413 69.4022C21.8375 68.5764 20.4944 67.6512 19.5493 67.0045C18.1763 66.0594 17.8281 66.4175 18.7633 67.7905C19.41 68.7356 20.3352 70.0886 21.1609 71.2825C19.7283 71.5511 18.1166 71.8495 16.9924 72.0585C15.3608 72.3669 15.3608 72.8643 16.9924 73.1628C18.1166 73.3717 19.7283 73.6702 21.1609 73.9388C20.3352 75.1326 19.41 76.4856 18.7633 77.4308C17.8281 78.8037 18.1763 79.1519 19.5493 78.2167C20.4944 77.5701 21.8474 76.6448 23.0512 75.8191C23.3198 77.2517 23.6183 78.8534 23.8272 79.9776C24.1356 81.6092 24.633 81.6192 24.9415 79.9776C25.1504 78.8534 25.4488 77.2417 25.7175 75.8091C26.9213 76.6349 28.2643 77.5601 29.2095 78.2068C30.5824 79.1519 30.9306 78.7937 29.9954 77.4208C29.3487 76.4757 28.4235 75.1227 27.5978 73.9288C29.0304 73.6602 30.6321 73.3617 31.7563 73.1528C33.3879 72.8444 33.3879 72.347 31.7563 72.0386C30.6321 71.8296 29.0204 71.5312 27.5978 71.2626C28.4235 70.0588 29.3487 68.7157 29.9954 67.7706C30.9306 66.4275 30.5724 66.0793 29.1995 67.0145Z" fill="white" stroke="#575756" stroke-width="0.4993" stroke-miterlimit="10"/>
<path d="M48.5 0.248657H0.248718V48.4999H48.5V0.248657Z" fill="white" stroke="#575756" stroke-width="0.4993" stroke-miterlimit="10"/>
<path d="M96.7513 48.5H48.5V96.7513H96.7513V48.5Z" fill="white" stroke="#575756" stroke-width="0.4993" stroke-miterlimit="10"/>
<path d="M78.2367 77.4507C77.5901 76.5055 76.6649 75.1525 75.8391 73.9587C77.2717 73.69 78.8834 73.3916 80.0076 73.1827C81.6392 72.8743 81.6392 72.3768 80.0076 72.0684C78.8834 71.8595 77.2717 71.561 75.8491 71.2924C76.6748 70.0886 77.6 68.7455 78.2467 67.8004C79.1918 66.4275 78.8337 66.0793 77.4607 67.0145C76.5156 67.6611 75.1626 68.5864 73.9687 69.4121C73.7001 67.9795 73.4017 66.3678 73.1927 65.2436C72.8843 63.612 72.3869 63.612 72.0884 65.2436C71.8795 66.3678 71.5811 67.9795 71.3124 69.4121C70.1186 68.5864 68.7656 67.6611 67.8204 67.0145C66.4475 66.0793 66.0993 66.4275 67.0345 67.8004C67.6812 68.7455 68.6064 70.0986 69.4321 71.3024C67.9995 71.571 66.3978 71.8694 65.2736 72.0784C63.642 72.3868 63.632 72.8842 65.2736 73.1926C66.3978 73.4015 68.0095 73.7 69.4421 73.9686C68.6163 75.1724 67.6911 76.5155 67.0444 77.4606C66.0993 78.8335 66.4575 79.1817 67.8304 78.2466C68.7755 77.5999 70.1285 76.6747 71.3224 75.8489C71.591 77.2815 71.8895 78.8833 72.0984 80.0075C72.4068 81.6391 72.9042 81.6391 73.2126 80.0075C73.4216 78.8833 73.72 77.2716 73.9886 75.8489C75.1924 76.6747 76.5355 77.5999 77.4806 78.2466C78.8237 79.1718 79.1719 78.8236 78.2367 77.4507Z" fill="white" stroke="#575756" stroke-width="0.4993" stroke-miterlimit="10"/>
<path d="M29.9855 29.1994C29.3388 28.2543 28.4136 26.9013 27.5878 25.7074C29.0204 25.4388 30.6321 25.1404 31.7563 24.9314C33.3879 24.623 33.3879 24.1256 31.7563 23.8172C30.6321 23.6083 29.0204 23.3098 27.5978 23.0412C28.4235 21.8374 29.3488 20.4943 29.9954 19.5492C30.9405 18.1763 30.5824 17.8281 29.2095 18.7632C28.2643 19.4099 26.9113 20.3351 25.7175 21.1609C25.4489 19.7283 25.1504 18.1166 24.9415 16.9924C24.6331 15.3608 24.1356 15.3608 23.8372 16.9924C23.6282 18.1166 23.3298 19.7283 23.0612 21.1609C21.8673 20.3351 20.5143 19.4099 19.5692 18.7632C18.1962 17.8281 17.848 18.1763 18.7832 19.5492C19.4299 20.4943 20.3551 21.8473 21.1809 23.0511C19.7482 23.3198 18.1465 23.6182 17.0223 23.8271C15.3907 24.1355 15.3807 24.633 17.0223 24.9414C18.1465 25.1503 19.7582 25.4488 21.1908 25.7174C20.3651 26.9212 19.4398 28.2643 18.7932 29.2094C17.848 30.5823 18.2062 30.9305 19.5791 29.9953C20.5242 29.3487 21.8773 28.4234 23.0711 27.5977C23.3397 29.0303 23.6382 30.6321 23.8471 31.7563C24.1555 33.3879 24.653 33.3879 24.9614 31.7563C25.1703 30.6321 25.4688 29.0204 25.7374 27.5977C26.9412 28.4234 28.2842 29.3487 29.2294 29.9953C30.5724 30.9206 30.9206 30.5724 29.9855 29.1994Z" fill="white" stroke="#575756" stroke-width="0.4993" stroke-miterlimit="10"/>
</svg>
