<svg width="97" height="97" viewBox="0 0 97 97" fill="none" xmlns="http://www.w3.org/2000/svg">
<path d="M96.7513 0.248657H48.5V48.4999H96.7513V0.248657Z" fill="white" stroke="#575756" stroke-width="0.4993" stroke-miterlimit="10"/>
<path d="M96.7513 33.5271V30.1346C89.6379 29.9754 83.2608 26.762 79.4903 24.3743C83.2509 21.9866 89.5982 18.7831 96.7413 18.624V15.2314C83.9572 15.4802 73.6703 24.3843 73.6703 24.3843C73.6703 24.3843 83.9672 33.2884 96.7513 33.5271Z" fill="white" stroke="#575756" stroke-width="0.4993" stroke-miterlimit="10"/>
<path d="M48.5 15.2314V18.624C55.6133 18.7831 61.9805 21.9966 65.7511 24.3843C61.9905 26.772 55.6432 29.9754 48.5 30.1346V33.5271C61.2841 33.2784 71.5711 24.3743 71.5711 24.3743C71.5711 24.3743 61.2841 15.4702 48.5 15.2314Z" fill="white" stroke="#575756" stroke-width="0.4993" stroke-miterlimit="10"/>
<path d="M81.7785 0.248657H78.386C78.2268 7.36199 75.0133 13.7391 72.6157 17.5097C70.228 13.7491 67.0245 7.40179 66.8653 0.258606H63.4728C63.7116 13.0427 72.6256 23.3197 72.6256 23.3197C72.6256 23.3197 81.5297 13.0427 81.7785 0.248657Z" fill="white" stroke="#575756" stroke-width="0.4993" stroke-miterlimit="10"/>
<path d="M63.4728 48.5H66.8653C67.0245 41.3866 70.238 35.0195 72.6256 31.2489C75.0133 35.0095 78.2168 41.3568 78.376 48.5H81.7685C81.5297 35.7159 72.6256 25.4388 72.6256 25.4388C72.6256 25.4388 63.7116 35.7159 63.4728 48.5Z" fill="white" stroke="#575756" stroke-width="0.4993" stroke-miterlimit="10"/>
<path d="M48.5 41.6055V45.0079C50.4201 45.0079 51.992 46.5699 51.992 48.4999H55.3945C55.3945 44.6995 52.3004 41.6055 48.5 41.6055Z" fill="white" stroke="#575756" stroke-width="0.4993" stroke-miterlimit="10"/>
<path d="M96.7513 7.14312V3.74066C94.8312 3.74066 93.2593 2.17871 93.2593 0.248657H89.8568C89.8568 4.05902 92.9409 7.14312 96.7513 7.14312Z" fill="white" stroke="#575756" stroke-width="0.4993" stroke-miterlimit="10"/>
<path d="M55.3945 0.248657H51.992C51.992 2.16876 50.4301 3.74066 48.5 3.74066V7.14312C52.3104 7.14312 55.3945 4.05902 55.3945 0.248657Z" fill="white" stroke="#575756" stroke-width="0.4993" stroke-miterlimit="10"/>
<path d="M93.2593 48.4999C93.2593 46.5798 94.8212 45.0079 96.7513 45.0079V41.6055C92.9409 41.6055 89.8568 44.6896 89.8568 48.4999H93.2593Z" fill="white" stroke="#575756" stroke-width="0.4993" stroke-miterlimit="10"/>
<path d="M53.7728 7.85937C51.6836 5.77014 51.1464 2.90491 51.1464 2.90491C51.1464 2.90491 54.0116 3.43219 56.1008 5.53137C58.1901 7.63055 58.7273 10.4858 58.7273 10.4858C58.7273 10.4858 55.8621 9.95855 53.7728 7.85937Z" fill="white" stroke="#575756" stroke-width="0.4993" stroke-miterlimit="10"/>
<path d="M89.1405 5.53137C91.2297 3.44214 94.095 2.90491 94.095 2.90491C94.095 2.90491 93.5677 5.77014 91.4785 7.85937C89.3892 9.9486 86.524 10.4858 86.524 10.4858C86.524 10.4858 87.0413 7.6206 89.1405 5.53137Z" fill="white" stroke="#575756" stroke-width="0.4993" stroke-miterlimit="10"/>
<path d="M91.4785 40.8892C93.5677 42.9784 94.1049 45.8436 94.1049 45.8436C94.1049 45.8436 91.2397 45.3163 89.1505 43.2172C87.0612 41.118 86.524 38.2627 86.524 38.2627C86.524 38.2627 89.3793 38.7999 91.4785 40.8892Z" fill="white" stroke="#575756" stroke-width="0.4993" stroke-miterlimit="10"/>
<path d="M56.1108 43.227C54.0215 45.3163 51.1563 45.8535 51.1563 45.8535C51.1563 45.8535 51.6836 42.9883 53.7828 40.899C55.882 38.8098 58.7372 38.2726 58.7372 38.2726C58.7372 38.2726 58.2 41.1378 56.1108 43.227Z" fill="white" stroke="#575756" stroke-width="0.4993" stroke-miterlimit="10"/>
<path d="M48.5 0.248657H0.248718V48.4999H48.5V0.248657Z" fill="white" stroke="#575756" stroke-width="0.4993" stroke-miterlimit="10"/>
<path d="M48.5 33.5271V30.1346C41.3867 29.9754 35.0195 26.7619 31.239 24.3643C34.9996 21.9766 41.3469 18.7731 48.4901 18.6139V15.2214C35.706 15.4702 25.419 24.3743 25.419 24.3743C25.419 24.3743 35.7159 33.2784 48.5 33.5271Z" fill="white" stroke="#575756" stroke-width="0.4993" stroke-miterlimit="10"/>
<path d="M0.248718 15.2214V18.6139C7.36205 18.7731 13.7292 21.9866 17.4998 24.3743C13.7392 26.7619 7.3919 29.9654 0.248718 30.1246V33.5171C13.0328 33.2684 23.3198 24.3643 23.3198 24.3643C23.3198 24.3643 13.0328 15.4702 0.248718 15.2214Z" fill="white" stroke="#575756" stroke-width="0.4993" stroke-miterlimit="10"/>
<path d="M33.5272 0.248657H30.1347C29.9755 7.36199 26.7621 13.7292 24.3644 17.4997C21.9767 13.7391 18.7732 7.39184 18.6141 0.248657H15.2215C15.4703 13.0328 24.3744 23.3197 24.3744 23.3197C24.3744 23.3197 33.2785 13.0328 33.5272 0.248657Z" fill="white" stroke="#575756" stroke-width="0.4993" stroke-miterlimit="10"/>
<path d="M15.2215 48.4999H18.6141C18.7732 41.3866 21.9867 35.0194 24.3744 31.2488C26.7621 35.0094 29.9655 41.3567 30.1247 48.4999H33.5172C33.2685 35.7158 24.3644 25.4288 24.3644 25.4288C24.3644 25.4288 15.4703 35.7158 15.2215 48.4999Z" fill="white" stroke="#575756" stroke-width="0.4993" stroke-miterlimit="10"/>
<path d="M0.248718 41.6055V45.0079C2.16882 45.0079 3.74072 46.5699 3.74072 48.4999H7.14318C7.14318 44.6896 4.05908 41.6055 0.248718 41.6055Z" fill="white" stroke="#575756" stroke-width="0.4993" stroke-miterlimit="10"/>
<path d="M48.5 7.14312V3.74066C46.5799 3.74066 45.008 2.17871 45.008 0.248657H41.6055C41.6055 4.05902 44.6896 7.14312 48.5 7.14312Z" fill="white" stroke="#575756" stroke-width="0.4993" stroke-miterlimit="10"/>
<path d="M7.14318 0.248657H3.74072C3.74072 2.16876 2.17877 3.74066 0.248718 3.74066V7.14312C4.05908 7.14312 7.14318 4.05902 7.14318 0.248657Z" fill="white" stroke="#575756" stroke-width="0.4993" stroke-miterlimit="10"/>
<path d="M45.008 48.4999C45.008 46.5798 46.5699 45.0079 48.5 45.0079V41.6055C44.6896 41.6055 41.6055 44.6896 41.6055 48.4999H45.008Z" fill="white" stroke="#575756" stroke-width="0.4993" stroke-miterlimit="10"/>
<path d="M5.52154 7.85949C3.43231 5.77026 2.89508 2.90503 2.89508 2.90503C2.89508 2.90503 5.77026 3.43231 7.85949 5.52154C9.94872 7.61077 10.486 10.476 10.486 10.476C10.486 10.476 7.62072 9.94872 5.52154 7.85949Z" fill="white" stroke="#575756" stroke-width="0.4993" stroke-miterlimit="10"/>
<path d="M40.8892 5.52148C42.9785 3.43225 45.8437 2.89502 45.8437 2.89502C45.8437 2.89502 45.3164 5.7702 43.2272 7.85943C41.1379 9.94866 38.2727 10.4859 38.2727 10.4859C38.2727 10.4859 38.7901 7.62066 40.8892 5.52148Z" fill="white" stroke="#575756" stroke-width="0.4993" stroke-miterlimit="10"/>
<path d="M43.2272 40.8892C45.3164 42.9784 45.8536 45.8436 45.8536 45.8436C45.8536 45.8436 42.9884 45.3163 40.8992 43.2172C38.81 41.118 38.2727 38.2627 38.2727 38.2627C38.2727 38.2627 41.128 38.79 43.2272 40.8892Z" fill="white" stroke="#575756" stroke-width="0.4993" stroke-miterlimit="10"/>
<path d="M7.85949 43.2272C5.77026 45.3164 2.90503 45.8536 2.90503 45.8536C2.90503 45.8536 3.43231 42.9884 5.53149 40.8992C7.63067 38.8099 10.486 38.2727 10.486 38.2727C10.486 38.2727 9.94872 41.128 7.85949 43.2272Z" fill="white" stroke="#575756" stroke-width="0.4993" stroke-miterlimit="10"/>
<path d="M96.7513 48.5H48.5V96.7513H96.7513V48.5Z" fill="white" stroke="#575756" stroke-width="0.4993" stroke-miterlimit="10"/>
<path d="M96.7513 81.7784V78.3859C89.6379 78.2267 83.2708 75.0133 79.4903 72.6157C83.2509 70.228 89.5982 67.0245 96.7413 66.8653V63.4728C83.9672 63.7215 73.6802 72.6256 73.6802 72.6256C73.6802 72.6256 83.9672 81.5297 96.7513 81.7784Z" fill="white" stroke="#575756" stroke-width="0.4993" stroke-miterlimit="10"/>
<path d="M48.5 63.4728V66.8653C55.6133 67.0245 61.9805 70.2379 65.7511 72.6256C61.9905 75.0133 55.6432 78.2168 48.5 78.376V81.7685C61.2841 81.5297 71.5711 72.6256 71.5711 72.6256C71.5711 72.6256 61.2841 63.7215 48.5 63.4728Z" fill="white" stroke="#575756" stroke-width="0.4993" stroke-miterlimit="10"/>
<path d="M81.7785 48.5H78.386C78.2268 55.6133 75.0133 61.9805 72.6256 65.7511C70.238 61.9905 67.0345 55.6432 66.8753 48.5H63.4728C63.7215 61.2841 72.6256 71.5711 72.6256 71.5711C72.6256 71.5711 81.5297 61.2841 81.7785 48.5Z" fill="white" stroke="#575756" stroke-width="0.4993" stroke-miterlimit="10"/>
<path d="M63.4728 96.7513H66.8653C67.0245 89.6379 70.238 83.2707 72.6256 79.5002C75.0133 83.2608 78.2168 89.6081 78.376 96.7513H81.7685C81.5297 83.9672 72.6256 73.6802 72.6256 73.6802C72.6256 73.6802 63.7215 83.9672 63.4728 96.7513Z" fill="white" stroke="#575756" stroke-width="0.4993" stroke-miterlimit="10"/>
<path d="M48.5 89.8568V93.2593C50.4201 93.2593 51.992 94.8212 51.992 96.7513H55.3945C55.3945 92.9409 52.3104 89.8568 48.5 89.8568Z" fill="white" stroke="#575756" stroke-width="0.4993" stroke-miterlimit="10"/>
<path d="M96.7513 55.3945V51.992C94.8312 51.992 93.2593 50.4301 93.2593 48.5H89.8568C89.8568 52.3104 92.9409 55.3945 96.7513 55.3945Z" fill="white" stroke="#575756" stroke-width="0.4993" stroke-miterlimit="10"/>
<path d="M55.3945 48.5H51.992C51.992 50.4201 50.4301 51.992 48.5 51.992V55.3945C52.3104 55.3945 55.3945 52.3104 55.3945 48.5Z" fill="white" stroke="#575756" stroke-width="0.4993" stroke-miterlimit="10"/>
<path d="M93.2593 96.7513C93.2593 94.8312 94.8212 93.2593 96.7513 93.2593V89.8568C92.9409 89.8568 89.8568 92.9409 89.8568 96.7513H93.2593Z" fill="white" stroke="#575756" stroke-width="0.4993" stroke-miterlimit="10"/>
<path d="M53.7728 56.1108C51.6836 54.0216 51.1464 51.1564 51.1464 51.1564C51.1464 51.1564 54.0116 51.6837 56.1008 53.7828C58.1901 55.882 58.7273 58.7373 58.7273 58.7373C58.7273 58.7373 55.872 58.2001 53.7728 56.1108Z" fill="white" stroke="#575756" stroke-width="0.4993" stroke-miterlimit="10"/>
<path d="M89.1405 53.7728C91.2297 51.6836 94.095 51.1464 94.095 51.1464C94.095 51.1464 93.5677 54.0116 91.4685 56.1008C89.3693 58.1901 86.5141 58.7273 86.5141 58.7273C86.5141 58.7273 87.0413 55.872 89.1405 53.7728Z" fill="white" stroke="#575756" stroke-width="0.4993" stroke-miterlimit="10"/>
<path d="M91.4785 89.1405C93.5677 91.2297 94.1049 94.095 94.1049 94.095C94.1049 94.095 91.2397 93.5677 89.1505 91.4685C87.0612 89.3693 86.524 86.514 86.524 86.514C86.524 86.514 89.3793 87.0413 91.4785 89.1405Z" fill="white" stroke="#575756" stroke-width="0.4993" stroke-miterlimit="10"/>
<path d="M56.1108 91.4785C54.0215 93.5677 51.1563 94.105 51.1563 94.105C51.1563 94.105 51.6836 91.2397 53.7828 89.1505C55.872 87.0613 58.7372 86.524 58.7372 86.524C58.7372 86.524 58.2 89.3793 56.1108 91.4785Z" fill="white" stroke="#575756" stroke-width="0.4993" stroke-miterlimit="10"/>
<path d="M48.5 48.5H0.248718V96.7513H48.5V48.5Z" fill="white" stroke="#575756" stroke-width="0.4993" stroke-miterlimit="10"/>
<path d="M48.5 81.7784V78.3859C41.3867 78.2267 35.0195 75.0133 31.2489 72.6256C35.0095 70.2379 41.3568 67.0344 48.5 66.8752V63.4728C35.7159 63.7215 25.4289 72.6256 25.4289 72.6256C25.4289 72.6256 35.7159 81.5297 48.5 81.7784Z" fill="white" stroke="#575756" stroke-width="0.4993" stroke-miterlimit="10"/>
<path d="M0.248718 63.4728V66.8653C7.36205 67.0245 13.7292 70.2379 17.4998 72.6256C13.7392 75.0133 7.3919 78.2168 0.248718 78.376V81.7685C13.0328 81.5297 23.3198 72.6256 23.3198 72.6256C23.3198 72.6256 13.0328 63.7215 0.248718 63.4728Z" fill="white" stroke="#575756" stroke-width="0.4993" stroke-miterlimit="10"/>
<path d="M33.5272 48.5H30.1347C29.9755 55.6133 26.7621 61.9805 24.3744 65.7511C21.9867 61.9905 18.7832 55.6432 18.624 48.5H15.2215C15.4703 61.2841 24.3744 71.5711 24.3744 71.5711C24.3744 71.5711 33.2884 61.2841 33.5272 48.5Z" fill="white" stroke="#575756" stroke-width="0.4993" stroke-miterlimit="10"/>
<path d="M15.2215 96.7513H18.6141C18.7732 89.6379 21.9867 83.2707 24.3744 79.5002C26.7621 83.2608 29.9655 89.6081 30.1247 96.7513H33.5172C33.2685 83.9672 24.3644 73.6802 24.3644 73.6802C24.3644 73.6802 15.4703 83.9672 15.2215 96.7513Z" fill="white" stroke="#575756" stroke-width="0.4993" stroke-miterlimit="10"/>
<path d="M0.248718 89.8568V93.2593C2.16882 93.2593 3.74072 94.8212 3.74072 96.7513H7.14318C7.14318 92.9409 4.05908 89.8568 0.248718 89.8568Z" fill="white" stroke="#575756" stroke-width="0.4993" stroke-miterlimit="10"/>
<path d="M48.5 55.3945V51.992C46.5799 51.992 45.008 50.4301 45.008 48.5H41.6055C41.6055 52.3104 44.6996 55.3945 48.5 55.3945Z" fill="white" stroke="#575756" stroke-width="0.4993" stroke-miterlimit="10"/>
<path d="M7.14318 48.5H3.74072C3.74072 50.4201 2.17877 51.992 0.248718 51.992V55.3945C4.05908 55.3945 7.14318 52.3104 7.14318 48.5Z" fill="white" stroke="#575756" stroke-width="0.4993" stroke-miterlimit="10"/>
<path d="M45.008 96.7513C45.008 94.8312 46.5699 93.2593 48.5 93.2593V89.8568C44.6896 89.8568 41.6055 92.9409 41.6055 96.7513H45.008Z" fill="white" stroke="#575756" stroke-width="0.4993" stroke-miterlimit="10"/>
<path d="M5.52154 56.1108C3.43231 54.0216 2.89508 51.1564 2.89508 51.1564C2.89508 51.1564 5.76031 51.6837 7.84954 53.7828C9.93877 55.882 10.476 58.7373 10.476 58.7373C10.476 58.7373 7.62072 58.2001 5.52154 56.1108Z" fill="white" stroke="#575756" stroke-width="0.4993" stroke-miterlimit="10"/>
<path d="M40.8892 53.7728C42.9785 51.6836 45.8437 51.1464 45.8437 51.1464C45.8437 51.1464 45.3164 54.0116 43.2172 56.1008C41.1181 58.1901 38.2628 58.7273 38.2628 58.7273C38.2628 58.7273 38.8 55.872 40.8892 53.7728Z" fill="white" stroke="#575756" stroke-width="0.4993" stroke-miterlimit="10"/>
<path d="M43.2272 89.1405C45.3164 91.2297 45.8536 94.095 45.8536 94.095C45.8536 94.095 42.9884 93.5677 40.8992 91.4685C38.81 89.3693 38.2727 86.514 38.2727 86.514C38.2727 86.514 41.138 87.0413 43.2272 89.1405Z" fill="white" stroke="#575756" stroke-width="0.4993" stroke-miterlimit="10"/>
<path d="M7.85949 91.4785C5.77026 93.5677 2.90503 94.105 2.90503 94.105C2.90503 94.105 3.43231 91.2397 5.53149 89.1505C7.63067 87.0613 10.486 86.524 10.486 86.524C10.486 86.524 9.95867 89.3793 7.85949 91.4785Z" fill="white" stroke="#575756" stroke-width="0.4993" stroke-miterlimit="10"/>
</svg>
