<svg width="438" height="438" viewBox="0 0 438 438" fill="none" xmlns="http://www.w3.org/2000/svg">
<g clip-path="url(#clip0_106_4351)">
<path d="M146.333 73.6667H73.6667V146.333H146.333V73.6667Z" fill="#C7C5BA"/>
<path d="M139.43 86.6256L141.598 80.6427C142.107 79.2499 140.75 77.8935 139.357 78.4021L133.362 80.57C128.336 82.3867 122.995 78.9471 122.511 73.6667H146.333V97.4771C141.053 97.0048 137.613 91.6517 139.43 86.6256Z" fill="#7D7970"/>
<path d="M133.375 139.43L139.357 141.598C140.75 142.107 142.107 140.75 141.598 139.357L139.43 133.362C137.613 128.336 141.053 122.995 146.333 122.511V146.333H122.523C122.995 141.053 128.348 137.613 133.375 139.43Z" fill="#859496"/>
<path d="M80.57 133.374L78.4021 139.357C77.8935 140.75 79.2499 142.107 80.6427 141.598L86.6377 139.43C91.6638 137.613 97.0048 141.053 97.4892 146.333H73.6667V122.523C78.9471 122.995 82.3867 128.348 80.57 133.374Z" fill="#7D7970"/>
<path d="M86.6256 80.57L80.6427 78.4021C79.2499 77.8935 77.8935 79.2499 78.4021 80.6427L80.57 86.6377C82.3867 91.6638 78.9471 97.0048 73.6667 97.4892V73.6667H97.4771C97.0048 78.9471 91.6517 82.3867 86.6256 80.57Z" fill="#859496"/>
<path d="M107.856 146.285C107.856 127.44 92.5235 112.095 73.6665 112.095H73.6544V108.014H73.6665C83.4886 108.014 92.4387 111.768 99.2209 117.884L117.872 99.2332C111.78 92.451 108.038 83.5251 108.038 73.7151C108.038 73.703 108.038 73.6788 108.038 73.6667H112.119C112.119 73.6788 112.119 73.703 112.119 73.7151C112.119 92.56 127.452 107.905 146.309 107.905C146.309 107.905 146.309 107.905 146.321 107.905V111.986C146.321 111.986 146.321 111.986 146.309 111.986C136.487 111.986 127.537 108.232 120.754 102.128L102.103 120.779C108.195 127.561 111.938 136.487 111.938 146.297C111.938 146.309 111.938 146.333 111.938 146.345H107.856C107.856 146.321 107.856 146.297 107.856 146.285Z" fill="#7D7970"/>
</g>
<rect x="219" y="146.333" width="72.6667" height="72.6667" fill="#C7C5BA"/>
<g clip-path="url(#clip1_106_4351)">
<path d="M219.023 291.694H146.356V364.361H219.023V291.694Z" fill="#C7C5BA"/>
<path d="M212.12 304.653L214.288 298.67C214.796 297.277 213.44 295.921 212.047 296.43L206.052 298.598C201.026 300.414 195.685 296.975 195.2 291.694H219.023V315.505C213.743 315.032 210.303 309.679 212.12 304.653Z" fill="#7D7970"/>
<path d="M206.064 357.458L212.047 359.625C213.44 360.134 214.796 358.778 214.288 357.385L212.12 351.39C210.303 346.364 213.743 341.023 219.023 340.538V364.361H195.213C195.685 359.08 201.038 355.641 206.064 357.458Z" fill="#859496"/>
<path d="M153.26 351.402L151.092 357.385C150.583 358.778 151.94 360.134 153.332 359.625L159.327 357.458C164.353 355.641 169.694 359.08 170.179 364.361H146.356V340.55C151.637 341.023 155.076 346.376 153.26 351.402Z" fill="#7D7970"/>
<path d="M159.315 298.598L153.332 296.43C151.94 295.921 150.583 297.277 151.092 298.67L153.26 304.665C155.076 309.691 151.637 315.032 146.356 315.517V291.694H170.167C169.694 296.975 164.341 300.414 159.315 298.598Z" fill="#859496"/>
<path d="M180.546 364.312C180.546 345.468 165.213 330.123 146.356 330.123H146.344V326.041H146.356C156.178 326.041 165.128 329.796 171.91 335.912L190.561 317.261C184.47 310.479 180.727 301.553 180.727 291.743C180.727 291.731 180.727 291.706 180.727 291.694H184.809C184.809 291.706 184.809 291.731 184.809 291.743C184.809 310.588 200.141 325.932 218.998 325.932C218.998 325.932 218.998 325.932 219.01 325.932V330.014C219.01 330.014 219.01 330.014 218.998 330.014C209.176 330.014 200.226 326.259 193.444 320.155L174.793 338.806C180.885 345.589 184.627 354.515 184.627 364.325C184.627 364.337 184.627 364.361 184.627 364.373H180.546C180.546 364.349 180.546 364.325 180.546 364.312Z" fill="#7D7970"/>
</g>
<rect x="1" y="1" width="72.6667" height="72.6667" stroke="#494A52" stroke-width="0.5"/>
<rect x="73.6667" y="1" width="72.6667" height="72.6667" stroke="#494A52" stroke-width="0.5"/>
<rect x="146.333" y="1" width="72.6667" height="72.6667" stroke="#494A52" stroke-width="0.5"/>
<rect x="219" y="1" width="72.6667" height="72.6667" stroke="#494A52" stroke-width="0.5"/>
<rect x="291.667" y="1" width="72.6667" height="72.6667" stroke="#494A52" stroke-width="0.5"/>
<rect x="364.333" y="1" width="72.6667" height="72.6667" stroke="#494A52" stroke-width="0.5"/>
<rect x="1" y="73.6667" width="72.6667" height="72.6667" stroke="#494A52" stroke-width="0.5"/>
<rect x="73.6667" y="73.6667" width="72.6667" height="72.6667" stroke="#494A52" stroke-width="0.5"/>
<rect x="146.333" y="73.6667" width="72.6667" height="72.6667" stroke="#494A52" stroke-width="0.5"/>
<rect x="219" y="73.6667" width="72.6667" height="72.6667" stroke="#494A52" stroke-width="0.5"/>
<rect x="291.667" y="73.6667" width="72.6667" height="72.6667" stroke="#494A52" stroke-width="0.5"/>
<rect x="364.333" y="73.6667" width="72.6667" height="72.6667" stroke="#494A52" stroke-width="0.5"/>
<rect x="1" y="146.333" width="72.6667" height="72.6667" stroke="#494A52" stroke-width="0.5"/>
<rect x="73.6667" y="146.333" width="72.6667" height="72.6667" stroke="#494A52" stroke-width="0.5"/>
<rect x="146.333" y="146.333" width="72.6667" height="72.6667" stroke="#494A52" stroke-width="0.5"/>
<rect x="219" y="146.333" width="72.6667" height="72.6667" stroke="#494A52" stroke-width="0.5"/>
<rect x="291.667" y="146.333" width="72.6667" height="72.6667" stroke="#494A52" stroke-width="0.5"/>
<rect x="364.333" y="146.333" width="72.6667" height="72.6667" stroke="#494A52" stroke-width="0.5"/>
<rect x="1" y="219" width="72.6667" height="72.6667" stroke="#494A52" stroke-width="0.5"/>
<rect x="73.6667" y="219" width="72.6667" height="72.6667" stroke="#494A52" stroke-width="0.5"/>
<rect x="146.333" y="219" width="72.6667" height="72.6667" stroke="#494A52" stroke-width="0.5"/>
<rect x="219" y="219" width="72.6667" height="72.6667" stroke="#494A52" stroke-width="0.5"/>
<rect x="291.667" y="219" width="72.6667" height="72.6667" stroke="#494A52" stroke-width="0.5"/>
<rect x="364.333" y="219" width="72.6667" height="72.6667" stroke="#494A52" stroke-width="0.5"/>
<rect x="1" y="291.667" width="72.6667" height="72.6667" stroke="#494A52" stroke-width="0.5"/>
<rect x="73.6667" y="291.667" width="72.6667" height="72.6667" stroke="#494A52" stroke-width="0.5"/>
<rect x="146.333" y="291.667" width="72.6667" height="72.6667" stroke="#494A52" stroke-width="0.5"/>
<rect x="219" y="291.667" width="72.6667" height="72.6667" stroke="#494A52" stroke-width="0.5"/>
<rect x="291.667" y="291.667" width="72.6667" height="72.6667" stroke="#494A52" stroke-width="0.5"/>
<rect x="364.333" y="291.667" width="72.6667" height="72.6667" stroke="#494A52" stroke-width="0.5"/>
<rect x="1" y="364.333" width="72.6667" height="72.6667" stroke="#494A52" stroke-width="0.5"/>
<rect x="73.6667" y="364.333" width="72.6667" height="72.6667" stroke="#494A52" stroke-width="0.5"/>
<rect x="146.333" y="364.333" width="72.6667" height="72.6667" stroke="#494A52" stroke-width="0.5"/>
<rect x="219" y="364.333" width="72.6667" height="72.6667" stroke="#494A52" stroke-width="0.5"/>
<rect x="291.667" y="364.333" width="72.6667" height="72.6667" stroke="#494A52" stroke-width="0.5"/>
<rect x="364.333" y="364.333" width="72.6667" height="72.6667" stroke="#494A52" stroke-width="0.5"/>
<rect x="142.352" y="287.685" width="80.6301" height="80.6301" rx="3" stroke="#494A52" stroke-width="1.2" stroke-linecap="round" stroke-linejoin="round" stroke-dasharray="0.01 3"/>
<defs>
<clipPath id="clip0_106_4351">
<rect width="72.6667" height="72.6667" fill="white" transform="translate(73.6667 73.6667)"/>
</clipPath>
<clipPath id="clip1_106_4351">
<rect width="72.6667" height="72.6667" fill="white" transform="translate(146.356 291.694)"/>
</clipPath>
</defs>
</svg>
