<svg width="46" height="46" viewBox="0 0 46 46" fill="none" xmlns="http://www.w3.org/2000/svg">
<path d="M46 0H0V46H46V0Z" fill="#C7C5BA"/>
<path d="M41.63 8.20333L43.0023 4.416C43.3243 3.53433 42.4657 2.67567 41.584 2.99767L37.789 4.37C34.6073 5.52 31.2263 3.34267 30.9197 0H46V15.0727C42.6573 14.7737 40.48 11.385 41.63 8.20333Z" fill="#7D7970"/>
<path d="M37.7967 41.63L41.584 43.0023C42.4657 43.3243 43.3243 42.4657 43.0023 41.584L41.63 37.789C40.48 34.6073 42.6573 31.2263 46 30.9197V46H30.9273C31.2263 42.6573 34.615 40.48 37.7967 41.63Z" fill="#859496"/>
<path d="M4.37 37.7966L2.99767 41.584C2.67567 42.4656 3.53433 43.3243 4.416 43.0023L8.211 41.63C11.3927 40.48 14.7737 42.6573 15.0803 46H0V30.9273C3.34267 31.2263 5.52 34.615 4.37 37.7966Z" fill="#7D7970"/>
<path d="M8.20333 4.37L4.416 2.99767C3.53433 2.67567 2.67567 3.53433 2.99767 4.416L4.37 8.211C5.52 11.3927 3.34267 14.7737 0 15.0803L0 0H15.0727C14.7737 3.34267 11.385 5.52 8.20333 4.37Z" fill="#859496"/>
<path d="M21.6428 45.9693C21.6428 34.04 11.9368 24.3263 -0.000206868 24.3263H-0.00787354V21.7427H-0.000206868C6.21746 21.7427 11.8831 24.1193 16.1765 27.991L27.9831 16.1843C24.1268 11.891 21.7578 6.24067 21.7578 0.0306667C21.7578 0.023 21.7578 0.00766667 21.7578 0H24.3415C24.3415 0.00766667 24.3415 0.023 24.3415 0.0306667C24.3415 11.96 34.0475 21.6737 45.9845 21.6737C45.9845 21.6737 45.9845 21.6737 45.9921 21.6737V24.2573C45.9921 24.2573 45.9921 24.2573 45.9845 24.2573C39.7668 24.2573 34.1011 21.8807 29.8078 18.0167L18.0011 29.8233C21.8575 34.1167 24.2265 39.767 24.2265 45.977C24.2265 45.9847 24.2265 46 24.2265 46.0077H21.6428C21.6428 45.9923 21.6428 45.977 21.6428 45.9693Z" fill="#7D7970"/>
</svg>
